<svg xmlns="http://www.w3.org/2000/svg" width="55" height="55" viewBox="0 0 55 55"><title>  arrow_down</title><desc>  Created with Sketch.</desc><g id="assets" fill="none"><g id="arrow_down" fill="#FFF"><g id="circle"><path d="M27.5 0C12.3 0 0 12.3 0 27.5 0 42.7 12.3 55 27.5 55 42.7 55 55 42.7 55 27.5 55 12.3 42.7 0 27.5 0L27.5 0ZM27.5 51.6C14.2 51.6 3.4 40.8 3.4 27.5 3.4 14.2 14.2 3.4 27.5 3.4 40.8 3.4 51.6 14.2 51.6 27.5 51.6 40.8 40.8 51.6 27.5 51.6L27.5 51.6Z"/></g><g id="arrowDown"><path d="M38.3 21.3L27.5 31.9 16.7 21.3C16 20.6 14.9 20.6 14.3 21.3 13.6 22 13.6 23.1 14.3 23.7L26.3 35.6C27 36.2 28.1 36.2 28.8 35.6L40.8 23.7C41.5 23.1 41.5 22 40.8 21.3 40.1 20.6 39 20.6 38.3 21.3L38.3 21.3Z"/></g></g></g></svg>