<?xml version="1.0" encoding="UTF-8" standalone="no"?>
<svg width="35px" height="35px" viewBox="0 0 35 35" version="1.1" xmlns="http://www.w3.org/2000/svg" xmlns:xlink="http://www.w3.org/1999/xlink">
    <!-- Generator: Sketch 39.1 (31720) - http://www.bohemiancoding.com/sketch -->
    <title>fb_icon</title>
    <desc>Created with Sketch.</desc>
    <defs></defs>
    <g id="assets" stroke="none" stroke-width="1" fill="none" fill-rule="evenodd">
        <g id="fb_icon" fill="#2D5399">
            <path d="M17.5,0 C7.83453125,0 0,7.83453125 0,17.5 C0,27.164375 7.83453125,35 17.5,35 C27.1654687,35 35,27.164375 35,17.5 C35,7.83453125 27.1654687,0 17.5,0 Z M14.9734375,27.2376563 L18.9973438,27.2376563 L18.9973438,17.4989063 L21.6814063,17.4989063 L22.036875,14.1432813 L18.9973438,14.1432813 L19.0017188,12.4632813 C19.0017188,11.5882813 19.0848438,11.1190625 20.3404688,11.1190625 L22.0182813,11.1190625 L22.0182813,7.76234375 L19.333125,7.76234375 C16.1076563,7.76234375 14.9734375,9.3909375 14.9734375,12.1285938 L14.9734375,14.1432813 L12.963125,14.1432813 L12.963125,17.5 L14.9734375,17.5 L14.9734375,27.2376563 L14.9734375,27.2376563 Z"></path>
        </g>
    </g>
</svg>