<?xml version="1.0" encoding="utf-8"?>
<!-- Generator: Adobe Illustrator 17.1.0, SVG Export Plug-In . SVG Version: 6.00 Build 0)  -->
<!DOCTYPE svg PUBLIC "-//W3C//DTD SVG 1.1//EN" "http://www.w3.org/Graphics/SVG/1.1/DTD/svg11.dtd">
<svg version="1.1" id="Layer_1" xmlns="http://www.w3.org/2000/svg" xmlns:xlink="http://www.w3.org/1999/xlink" x="0px" y="0px"
	 viewBox="0 0 595.2 393" enable-background="new 0 0 595.2 393" xml:space="preserve">
<polygon fill="#4BBC97" points="452.9,80.6 325.9,263.3 353.7,298.7 353.7,316.7 369.6,340.1 386.9,332.6 486.7,118.7 "/>
<polygon opacity="0.44" fill="#384F48" points="476.7,102 439,125.9 325.9,263.3 353.7,298.7 369.6,340.1 386.9,332.6 427.9,235.5 
	460,144.9 "/>
<polyline fill="#39574C" points="471.5,116.5 381.2,287.1 381.2,329.9 471.5,140.4 461.6,102 "/>
<polygon opacity="0.28" fill="#39574C" points="457.7,94 344.6,287.1 353.7,298.7 460,97.4 "/>
<polygon fill="#D3B4B1" points="490.3,77.3 492.4,94.6 497,105.7 455.3,78.5 471.5,60.1 "/>
<polygon fill="#D3B4B1" points="486.7,41.3 492.4,42.1 494.9,47.3 516.5,68.2 515.9,72.7 490.3,77.3 473.1,65 476.7,44.8 "/>
<polygon fill="#D3B4B1" points="575.2,15.3 580.8,0 589.6,1.3 595.2,14.2 586.4,23.5 576.7,26 "/>
<path fill="#D3B4B1" d="M378.3,211.1v10.5l14.3,4c0,0,4.1-10.3,2.4-11.8c-1.7-1.5-5-8.2-5-8.2l0-10.3l-11.8,15.2"/>
<path fill="#3A2B51" d="M455.8,79.3c8.6,0.8,37.9,22.7,40.8,25.5c2.9,2.8,29.1,22.6-4.8,67.8s-23.7,39.3-31.9,35.2
	s-34.5-13.7-35.9-16.2c-1.4-2.5-6.4-45.2-6.4-45.2S435.3,77.4,455.8,79.3z"/>
<path fill="#3A2B51" d="M492.4,94.6c0,0,10.1,23.3,10.1,27.3s-2.8,35,2.3,28.8C510,144.5,542,103,544.5,98s34.5-68.3,35.4-69.4
	c0.9-1.1-3.9-16.2-3.9-16.2l-39.9,51l-12,10.1l-10.9,10.8L499,84.6L492.4,94.6z"/>
<polygon fill="#3A2B51" points="455.8,79.3 430.5,81.3 417.7,99.1 375.2,135.1 364.8,142.8 378.2,210.6 390,202 396.4,163.7 
	394,158.3 427.9,151.4 460,97.4 "/>
<path fill="#3A2B51" d="M425.5,189l-27,21.5l5.5,33.8l-4,42.8l-12.6,7.2c0,0-3.7,56.1-8.1,61.2c-2.1,2.5-3.8-2.5-7.3,0.9
	c-3.7,3.6-3.8,12.2-6.9,21.7c-3.1,17.5,2.9,8.3,2.9,8.3s17.2-30.2,28.3-49.2c11.1-19,20.7-33.2,20.7-33.2l3.4-5.8l43.5-86.3
	l-0.3-13.5L425.5,189z"/>
<polygon fill="#3A2B51" points="579.9,28.5 559.3,78.9 543.7,88.7 536.2,67 "/>
<path fill="#3A2B51" d="M534.8,80.7"/>
<polygon fill="#3A2B51" points="536.2,54.8 538,77.3 576.1,12.3 "/>
<polygon fill="#3A2B51" points="461.6,213.2 432,285.3 416.3,298.7 454.3,210.6 "/>
<linearGradient id="SVGID_1_" gradientUnits="userSpaceOnUse" x1="494.9571" y1="116.0902" x2="518.1744" y2="116.0902">
	<stop  offset="0" style="stop-color:#20182D"/>
	<stop  offset="1" style="stop-color:#3A2B51"/>
</linearGradient>
<polygon fill="url(#SVGID_1_)" points="493.7,94.1 506.1,118.9 512.5,141.1 529.6,118.9 511.6,97.5 494.8,91.1 "/>
<path fill="#3A2B51" d="M506.1,118.7l7.2,24.6c0,0-17,23-26.6,36.3c-9.5,13.3,18-37.6,18-37.6l-4-26.9L506.1,118.7z"/>
<polygon fill="#4BBC97" points="423.4,186.3 467.5,206.9 463.7,213.2 422.8,190.8 "/>
<polygon fill="#4BBC97" points="398.6,287.1 411,314.4 364.8,393 362.8,388 368.1,354.3 377.5,352 387.4,294.3 "/>
<polygon fill="#4BBC97" points="455.5,79.3 499.1,107 493.5,93.6 506.1,118.7 447.2,79.3 "/>
<polygon fill="#4BBC97" points="496.3,140 481.5,160.4 484.7,165 500.2,141.5 "/>
<polygon fill="#4BBC97" points="493.7,148.5 511,146.3 507.8,150.7 493.2,151.9 497,165.4 493.2,170.6 490,153.8 "/>
<polygon fill="#4BBC97" points="495.5,153.8 506.1,153 504,155.9 498.4,155.2 500.8,160.2 498.4,163.5 "/>
<polygon fill="#020202" points="477.1,64.3 476.1,48.2 494.3,41.3 495.5,39.8 497,34.1 498.9,28.5 494.8,32.3 492.4,31.6 486,36.7 
	474.4,38.1 464.8,50.7 467.5,64.6 "/>
<path fill="#4BBC97" d="M234,176.6l-93.6,95.2c0,0,30.4,13.7,33.8,15.2s25.2,23.4,25.2,23.4l31.6-21.6l29.5-93.7L234,176.6z"/>
<polygon opacity="0.44" fill="#384F48" points="273.1,201.8 244.7,208.8 140.3,271.9 179.2,284.6 192.1,303.3 214.1,315 
	255.9,247.5 256.5,244.7 "/>
<polygon fill="#D3B4B1" points="246.8,133.9 278.2,125.2 288,144.9 290.2,170.6 287,177.9 255.6,168 246.3,154.6 "/>
<polygon fill="#D3B4B1" points="245.7,176.2 253.3,161.3 270.3,165.3 269,186.3 276.4,198.3 "/>
<polyline fill="#D3B4B1" points="188.7,264.8 196.6,274.7 205.6,274.7 203.4,258.9 193.8,253.8 188.7,264.8 "/>
<polygon fill="#D3B4B1" points="319.3,230.2 337,218.5 331.5,208.8 325.7,208.8 319.3,223.2 "/>
<polygon fill="#3A2B51" points="247.7,172.3 275.7,195.2 285.3,210.4 257.3,277 214.1,261.1 218.5,218.5 234,176.6 "/>
<polygon fill="#3A2B51" points="238.7,184 234.3,178.5 212.9,194 174.2,225.8 190.2,268 197.8,255.6 196.2,234.9 235.4,218.6 "/>
<polygon fill="#3A2B51" points="269.4,203.8 290.9,236.1 296.4,228.2 320.8,219.5 320.8,229.5 288.4,260.1 253.5,229.5 "/>
<polygon fill="#3A2B51" points="218.5,253.8 204.6,277 208,291.9 284.1,327.6 279.5,332.2 303.4,383.3 325,362 307,364.7 303.4,321 
	257.8,271.9 "/>
<polygon fill="#3A2B51" points="250,303.3 190.5,345.4 159.3,310.5 148.7,325.1 158.7,304.4 163.5,309.7 186.9,314.9 191.1,325.1 
	209.9,284.6 "/>
<polygon points="248.4,161.2 238.7,146.3 244.7,130.6 254.7,120.3 278.2,125.2 290.2,124.3 279.8,133.3 257.3,137.7 257.8,151.6 
	251.9,164.5 "/>
<polygon fill="#4BBC97" points="258.1,272.2 214.1,258.5 214.1,261.1 260.4,274.7 "/>
<polygon fill="#4BBC97" points="247.7,172.3 275.7,195.2 240.4,174.6 "/>
<polygon fill="#4BBC97" points="284.3,327.3 304.6,334.7 307.6,364.6 325,362 303.4,383.3 278,332.2 "/>
<polyline fill="#4BBC97" points="156.5,301.9 146.3,329.9 160,313.3 181.7,337.3 191.1,325.1 188.7,315 163.5,306.2 "/>
<path fill="#4BBC97" d="M37.7,272.2"/>
<polygon fill="#4BBC97" points="0,324 37.7,272.2 66.7,288.7 27.3,354 17.8,332 15.2,337.3 7,321.3 "/>
<polygon opacity="0.44" fill="#384F48" points="69.4,279.8 49.8,276.3 7.1,321.8 17.8,332 23.1,344.8 49.3,341.5 70.6,291.8 
	78.6,286 "/>
<polyline fill="#D3B4B1" points="115.9,288.6 118.9,282.1 126.9,284.4 126.4,294.2 119.4,296.5 115.9,288.6 "/>
<polygon fill="#D3B4B1" points="12.7,311.4 9.7,321.5 17.6,327.8 21.1,324.1 21.1,315.9 "/>
<polygon fill="#D3B4B1" points="31.6,238.7 51.9,219.5 77,227 89.7,250.6 78.5,271.7 55.5,271.9 42,268.3 "/>
<polygon fill="#D3B4B1" points="75,264.3 87.4,274.7 43.5,272.2 41.5,264.3 "/>
<path fill="#3A2B51" d="M42,268.3c0.5,0,41.5,3.8,41.5,3.8l10,8.2v39.3c0,0-4.4,10.3-13,17.7c-2.2,1.9-25,8.1-25,8.1l-23.9-15.5
	v-42.8L42,268.3z"/>
<path fill="#3A2B51" d="M43.5,272.2l-3.9-2.2l-21.8,26.5l-6.3,17.2l9.5,6l21.9-17.7C42.8,301.9,54,277,43.5,272.2z"/>
<polygon fill="#3A2B51" points="93.1,284.6 107,291.9 116.9,288.4 119.4,296.5 103,309.7 87.4,306.1 "/>
<path fill="#3A2B51" d="M32,324l23,1.1l6.6,18.4l-24.6,26l3.5,3.8l-7.7-1l-15.1-9l4.5-13.6C22.3,349.7,29.5,326.2,32,324z"/>
<path fill="#3A2B51" d="M81.3,332.6l14.2,23.2l6.6,3.6h3.5l-19.6,14L61.6,359l-20.1-25C41.5,334,64,300.3,81.3,332.6z"/>
<polygon points="31.6,236.3 53.5,219.5 74.2,219.5 78.5,216 70.7,225.5 41.5,236.8 41.5,264.3 33.4,252.7 "/>
<polygon points="46,253.8 41.5,236.8 34.1,245.7 41.5,264.3 "/>
<path fill="#4BBC97" d="M41.5,266.9"/>
<polygon fill="#4BBC97" points="83.5,272.2 37.7,272.2 41.5,266.9 "/>
<polygon fill="#4BBC97" points="32,324 86,331.6 83,335 30.8,325.9 "/>
<polygon fill="#4BBC97" points="23,344.3 42.8,364.2 38.2,369.3 42.7,374.3 32,373 17.8,363.3 "/>
<polygon fill="#4BBC97" points="69.3,364.7 96.7,355.3 103.2,359 107,359 85.4,374.1 "/>
</svg>
