<?xml version="1.0" encoding="utf-8"?>
<!-- Generator: Adobe Illustrator 17.1.0, SVG Export Plug-In . SVG Version: 6.00 Build 0)  -->
<!DOCTYPE svg PUBLIC "-//W3C//DTD SVG 1.1//EN" "http://www.w3.org/Graphics/SVG/1.1/DTD/svg11.dtd">
<svg version="1.1" id="Layer_2" xmlns="http://www.w3.org/2000/svg" xmlns:xlink="http://www.w3.org/1999/xlink" x="0px" y="0px"
	 viewBox="0 0 276.2 483" enable-background="new 0 0 276.2 483" xml:space="preserve">
<g>
	<g>
		<defs>
			<polygon id="SVGID_1_" points="147,173.8 131.8,231 131.9,171.8 102.4,223.1 117.8,165.9 76,207.9 105.8,156.7 54.5,186.4 
				96.5,144.6 39.3,160.1 90.7,130.6 31.5,130.7 88.7,115.5 31.5,100.3 90.7,100.4 39.3,70.9 96.5,86.4 54.5,44.6 105.8,74.3 
				76,23.1 117.8,65.1 102.4,7.9 131.9,59.2 131.8,0 147,57.3 162.2,0 162,59.2 191.5,7.9 176.1,65.1 217.9,23.1 188.2,74.3 
				239.4,44.6 197.4,86.4 254.6,70.9 203.2,100.4 262.5,100.3 205.2,115.5 262.5,130.7 203.2,130.6 254.6,160.1 197.4,144.6 
				239.4,186.4 188.2,156.7 217.9,207.9 176.1,165.9 191.5,223.1 162,171.8 162.2,231 			"/>
		</defs>
		<clipPath id="SVGID_2_">
			<use xlink:href="#SVGID_1_"  overflow="visible"/>
		</clipPath>
		<g clip-path="url(#SVGID_2_)">
			<defs>
				<rect id="SVGID_3_" x="-716.5" y="-128" width="1440" height="843"/>
			</defs>
			<clipPath id="SVGID_4_">
				<use xlink:href="#SVGID_3_"  overflow="visible"/>
			</clipPath>
			<rect x="26.5" y="-5" clip-path="url(#SVGID_4_)" fill="#E9DCEC" width="241" height="241"/>
		</g>
	</g>
	<g>
		<defs>
			<polygon id="SVGID_5_" points="148.5,142.5 141.5,168.5 141.6,141.6 128.2,165 135.2,138.9 116.2,158 129.7,134.7 106.4,148.3 
				125.5,129.2 99.5,136.3 122.9,122.9 95.9,122.9 122,116 95.9,109.1 122.9,109.1 99.5,95.7 125.5,102.8 106.4,83.7 129.7,97.3 
				116.2,74 135.2,93.1 128.2,67 141.6,90.4 141.5,63.5 148.5,89.5 155.4,63.5 155.3,90.4 168.7,67 161.7,93.1 180.7,74 167.2,97.3 
				190.5,83.7 171.4,102.8 197.4,95.7 174.1,109.1 201,109.1 175,116 201,122.9 174.1,122.9 197.4,136.3 171.4,129.2 190.5,148.3 
				167.2,134.7 180.7,158 161.7,138.9 168.7,165 155.3,141.6 155.4,168.5 			"/>
		</defs>
		<clipPath id="SVGID_6_">
			<use xlink:href="#SVGID_5_"  overflow="visible"/>
		</clipPath>
		<g clip-path="url(#SVGID_6_)">
			<defs>
				<rect id="SVGID_7_" x="-716.5" y="-128" width="1440" height="843"/>
			</defs>
			<clipPath id="SVGID_8_">
				<use xlink:href="#SVGID_7_"  overflow="visible"/>
			</clipPath>
			<rect x="90.9" y="58.5" clip-path="url(#SVGID_8_)" fill="#FFFFFF" width="115.1" height="115.1"/>
		</g>
	</g>
	<polygon fill="#D3B4B1" points="227.9,171.6 222.6,189.7 228.1,205.1 239.2,200.5 254.4,184.5 250.6,167 236.3,162.7 	"/>
	<polygon fill="#D3B4B1" points="246.2,188.5 241.7,214.4 246.2,224.5 217.4,219 228,214.4 235.7,193 	"/>
	<polygon fill="#D3B4B1" points="239.2,215.5 260.4,227 267.1,238.3 270.8,303.5 261.9,284 260.4,277 255,244.8 200,229 
		207.9,214.4 	"/>
	<polygon fill="#D3B4B1" points="211.7,218.5 206.9,210.6 194.7,200.5 171.2,166.7 169.4,184.5 190.5,222 204.7,236.4 	"/>
	<polygon fill="#D3B4B1" points="176.7,182.7 169.8,155.3 158.5,121.5 155.1,128.8 161.4,177.1 176.7,195.2 	"/>
	<polygon fill="#D3B4B1" points="256,238.3 254.4,259.6 243.2,268.4 234.4,290 205.9,283.6 204.7,249.1 200,229 217.4,219 	"/>
	<path fill="#D3B4B1" d="M207.9,280.3l-20.8,9.7l-6.9,23.7l19.9,65.2h8l5-3.2c0,0,12.2-70.6,12.2-71.2s-2.9-23.9-2.9-23.9
		L207.9,280.3z"/>
	<polygon fill="#D3B4B1" points="216.8,284 234.9,284 251.3,318.2 260.2,366 256,394 246.2,390.5 230.3,354.2 211.7,322.5 	"/>
	<polygon fill="#D3B4B1" points="243.6,378.9 254.4,385.2 254.4,393.4 242.3,400.3 217.7,403.7 232.6,385.9 	"/>
	<polygon fill="#D3B4B1" points="204.7,368.9 213.1,375.7 205.5,432.3 201.7,434.2 190.9,391.3 196.4,366.9 	"/>
	<polygon fill="#4BBC97" points="225.2,215 216.8,233.8 227.9,240.5 246.2,238.3 245.6,219 253.1,223 255.5,245 254.4,259.6 
		243.2,268.4 235.7,286.9 205.8,280.3 202,237.3 220.5,214.4 	"/>
	<path fill="#3A2B51" d="M205.8,280.3l-18.6,9.7l-6.9,23.7l6.9,25.3c0,0,19.5-7.4,21-7.4c1.5,0.1,11.6,5.7,11.6,5.7v-7.7l21.2-13.6
		l10.4,2.2l-15.6-31.3l-12.6-0.1L205.8,280.3z"/>
	<polygon fill="#D3B4B1" points="157.4,127.8 160.7,118.7 160.7,115.7 163.6,101.8 161.2,102.5 154,113.3 154,126 155.1,127.8 	"/>
	<polygon fill="#A26327" points="231.8,167.4 232.6,162.7 248.2,160.3 258.2,169 258.2,193 246.2,196.5 243.7,192 251.3,181.5 
		248.7,174 239.2,166.7 	"/>
	<polygon fill="#A26327" points="253.2,164.7 260.2,158.3 270.9,161.9 276.2,181.5 265.3,196.5 267.7,205.1 260.2,200.5 
		265.2,183.9 256,172.5 	"/>
	<polygon fill="#D3B4B1" points="264.9,283.3 246.1,269.9 245,275.9 265.2,302.7 270.8,303.5 	"/>
	<polygon fill="#3A2B51" points="222.6,400.3 219.1,398.1 217.7,403.7 218.6,417.7 222.6,427 225.2,427 227.9,417 225.2,406 	"/>
	<polygon fill="#3A2B51" points="202,430.5 200,439.3 202.7,449.5 205.9,454.9 208.1,446.3 207.9,435.5 204.1,429.9 	"/>
	<polygon fill="#FFFFFF" points="245,216.5 251.3,220.5 253.2,223.1 253.2,250.7 245,271.7 243.6,284 240.6,280.3 235.5,280.6 
		235.5,276 242.2,259.6 247.6,235 244.3,217.3 	"/>
	<polygon fill="#FFFFFF" points="225.2,213.3 212.1,214.6 205.9,233.2 208.1,250.7 210.2,268.4 217.4,259.6 219.9,250.7 
		215.8,240.8 219.5,224.5 	"/>
	<polygon fill="#D3B4B1" points="246.2,267.7 245,262.1 239.2,261.6 235.7,264.6 241,269.8 248.5,280.6 250.7,273.2 	"/>
	<polygon fill="#D3B4B1" points="52,172.2 65,154.7 79.5,158.3 91.2,196.5 70.2,196.5 	"/>
	<polygon fill="#D3B4B1" points="58.7,179.4 57.7,197.4 54.1,213.3 43.3,219 68.9,236.4 94.6,219 76.3,188.5 	"/>
	<polygon fill="#D3B4B1" points="59.2,208.6 50.6,213.3 37.2,218.7 16,226.5 8.2,245.9 8.6,259 0,318.1 22.6,316.5 27.8,304.5 
		33.1,277.8 37.7,284 60.9,240.8 	"/>
	<polygon fill="#D3B4B1" points="83.2,206.2 100.8,207.9 107.7,195.2 119.4,188.5 127.3,174.1 142.7,195.2 130.6,220.8 124.7,234 
		116.2,262.5 83.2,224.5 	"/>
	<polygon fill="#D3B4B1" points="127.7,182.6 126.9,167.6 139.3,119.2 144.5,122.4 149.5,179.3 141.7,197.4 	"/>
	<polygon fill="#D3B4B1" points="22.1,303.5 32.1,323.5 26.3,366.9 18.9,370.2 0,318.1 	"/>
	<path fill="#D3B4B1" d="M140.1,122.3c0,0-3.6-13.5-3.4-12.5c0.2,1.1-6-15-6-15l6.5,3.1l9.8,13.7l-3.9,13.8L140.1,122.3z"/>
	<polygon fill="#020202" points="50.6,162.7 58.6,156.7 65.4,151 73.9,153.4 78.8,151 74.6,160.3 65.4,166.7 70.3,179.4 68.9,188.5 
		57.7,184.5 52,172.2 	"/>
	<polygon fill="#D3B4B1" points="17.7,366.9 20.2,378.9 28.2,386.7 34.9,383 30.5,381 29.2,370.2 23.6,361.3 	"/>
	<polygon fill="#3A2B51" points="49.1,213.3 62.7,224.5 85.2,222 90.7,206.5 95.6,206.4 97.2,236.4 120.4,250.7 107,304.5 
		109,309.7 89.6,323.3 53.2,318.2 37.2,284 50.2,246.5 38.3,218.5 	"/>
	<polygon fill="#666172" points="64.7,478.7 57.7,465.5 52.8,466.3 44.9,462.6 37.2,462.6 43.3,473.2 57.7,483 65.4,483 	"/>
	<polygon fill="#666172" points="116.1,432.2 125.3,432.2 133.9,417 134.9,408.8 126.7,412.6 114.6,423 	"/>
	<path fill="#373638" d="M52.8,318.1l28.8,2.2l26.4-12.8l22.6,43.5l6.5,18.9l0.1,12l-13.5,7c0,0-18-11.6-22-15S65.7,342,65.7,342
		L52.8,318.1z"/>
	<polygon fill="#373638" points="100.8,318.2 52.8,318.1 43.3,356 42.7,403.7 50.6,409.9 60.6,400.5 78.8,372.3 95,334.3 	"/>
	<polygon fill="#373638" points="54.1,396.7 62.2,411.9 65.4,427 64.7,478.7 52.8,466.3 43.3,424 42.7,403.7 	"/>
	<polygon fill="#373638" points="125.3,376.3 114.3,391.3 113.7,407.4 117.7,429.9 125.3,418.5 137.3,381.9 	"/>
</g>
</svg>
