<?xml version="1.0" encoding="utf-8"?>
<!-- Generator: Adobe Illustrator 17.1.0, SVG Export Plug-In . SVG Version: 6.00 Build 0)  -->
<!DOCTYPE svg PUBLIC "-//W3C//DTD SVG 1.1//EN" "http://www.w3.org/Graphics/SVG/1.1/DTD/svg11.dtd">
<svg version="1.1" id="illustration01" xmlns="http://www.w3.org/2000/svg" xmlns:xlink="http://www.w3.org/1999/xlink" x="0px"
	 y="0px" viewBox="0 0 523.6 354.5" enable-background="new 0 0 523.6 354.5" xml:space="preserve">
<circle id="circle1" fill="#4BBC97" cx="229.6" cy="81.2" r="16"/>
<circle id="circle2" opacity="0.42" fill="#4BBC97" cx="228.8" cy="81.9" r="28.2"/>
<circle id="circle3" opacity="0.31" fill="#4BBC97" cx="228.8" cy="81.9" r="43.5"/>
<circle id="circle4" opacity="0.3" fill="#4BBC97" cx="229.6" cy="82.2" r="82.2"/>
<line id="line" fill="none" stroke="#4DBC96" stroke-width="3" stroke-linecap="round" stroke-miterlimit="10" x1="245.5" y1="81.2" x2="399.8" y2="81.2"/>
<g id="Time">
	<circle fill="#FFFFFF" stroke="#4BBC97" stroke-width="2" stroke-miterlimit="10" cx="283.3" cy="80.4" r="17.2"/>
	<g>
		<path fill="#4BBC97" d="M288.3,70.3h-9.2l-4.8,5.3l-0.9,7.4l5.5,7.4h6.3l6.4-1.7l2.4-10.7L288.3,70.3z M289.6,87.3l-8.7,1.5
			l-5.2-5.3V78l4.9-5.3h7.5l4,7.4L289.6,87.3z"/>
		<polygon fill="#4BBC97" points="284.6,77.9 283.6,73.8 282.5,78.2 283.4,81.7 284,81.3 		"/>
		<polygon fill="#4BBC97" points="284.6,81.4 283.4,81.7 284.6,83.1 286.9,84.7 286.4,82.7 		"/>
	</g>
</g>
<g id="location">
	<circle fill="#FFFFFF" stroke="#4BBC97" stroke-width="2" stroke-miterlimit="10" cx="326.7" cy="81.3" r="17.2"/>
	<path fill="#4BBC97" d="M331,71.7l-3.7-1.2l-4.1,0.9l-3.7,4.7l0.5,5.6l6.7,10.4l5.6-7l1.9-7.3L331,71.7z M329.8,81.8l-6,0.6
		l-1.9-4.8l2.7-4.1l5.2,0.4l1.6,5.1L329.8,81.8z"/>
</g>
<g id="workout">
	<circle fill="#FFFFFF" stroke="#4BBC97" stroke-width="2" stroke-miterlimit="10" cx="368.1" cy="82" r="17.2"/>
	<g>
		<polygon fill="#4BBC97" points="360.8,75.4 362.9,74.5 364.5,76.2 364.5,87.7 362.6,89.4 359.8,86.4 359.8,76.9 		"/>
		<polygon fill="#4BBC97" points="372,75.9 373.5,74.5 376.4,75.8 376.4,87.1 375,89.4 372,87.2 		"/>
		<rect x="356.9" y="80.1" fill="#4BBC97" width="22.3" height="2.9"/>
		<polygon fill="#4BBC97" points="360.6,77.8 359.4,76.6 357.8,77.4 357.8,85.6 359.5,86.6 360.6,85.6 		"/>
		<polygon fill="#4BBC97" points="378.4,77.8 377.1,77.1 375.7,77.4 375.7,85.6 377.1,86.3 378.4,85.6 		"/>
	</g>
</g>
<g id="standingMan">
	<polygon fill="#383838" points="209.3,117.1 223.6,76.9 239.3,76.9 223.6,113.4 	"/>
	<circle fill="#7A7B7B" cx="226.8" cy="80.2" r="1.5"/>
	<polygon fill="#C6A9A6" points="102.5,38.3 94.4,73.2 110.5,97.8 127.5,97.8 131.5,85.1 127.5,54.6 	"/>
	<path fill="#C6A9A6" d="M47.8,90.2c5.9-2.5,53.4-19.5,53.4-19.5l26.3,5.9l33.9,8.5l16.9,16.9l-39.5,97.4l-54.5,4L47.8,90.2z"/>
	<path fill="#D3B5B1" d="M102.5,43.6V19.8L112,8l20.8,2.4l3.5,45.3l-3.6,5.7C132.6,61.4,109.9,55.7,102.5,43.6z"/>
	<polygon fill="#323033" points="140.5,196.4 149.5,260.4 136,354.4 121.2,354.4 113.1,239.2 98.7,354.5 84.3,354.4 74.3,253.6 
		82.4,196.8 	"/>
	<polygon fill="#D3B5B1" points="74.3,81.3 51.8,86 36.6,102.1 23.9,192.1 27.6,200.6 51.6,206 59,185.8 65.1,165.4 65.4,144.9 	"/>
	<polygon fill="#D3B5B1" points="164.3,88.1 178.3,92.7 188.5,108 188.5,131.8 197,179.4 180.6,206.3 159.7,197.8 149.5,119.9 	"/>
	<polygon fill="#D3B6B2" points="166.4,193.6 181.3,207.3 200.7,195.4 226.8,124.3 226.8,114.6 221.6,113.9 178.3,158.2 	"/>
	<polyline fill="#D3B4B1" points="221.6,127.1 230.9,111.4 234.2,97.8 227.9,88.1 216.4,97.8 216.4,115.2 221.6,122.4 	"/>
	<polygon fill="#D3B5B1" points="105.2,29.2 96.7,24.9 94.4,29.6 99.8,38.3 105.2,40.2 	"/>
	<polygon fill="#938E99" points="137.1,347 157.4,354.5 121.2,354.4 120.4,347 	"/>
	<polygon fill="#938E99" points="83.1,346.7 99.7,346.7 99.2,354.5 66.6,354.5 	"/>
	<path d="M101,27.1l-2.3-1.2L97.8,9.4l4.7-0.2l2.7-5.5L119.4,0l6.6,3.1l7.9-1.1l4.3,3.7l3.2,2.4h-5.1l-1.9,2.9c0,0-5.2,0.5-6.2,0.8
		s-5.8-0.2-5.8-0.2l-6.9-3c0,0-4.3,4.5-5.5,6s-4.7,6.5-4.7,6.5v11.6l-0.8,5.4l-3.1-9.1L101,27.1z"/>
	<polygon fill="#3A2B51" points="92.5,73.8 116.8,95.1 131.5,77.6 161.4,85.1 178.3,89.2 188.5,108 188.5,122.4 188.5,131.8 
		162.4,142.5 140.5,196.4 88.1,198.3 79.1,190.5 65.4,145.3 31.4,135.5 35.1,111.4 35.9,97.8 52.6,84.3 69.4,81.3 	"/>
	<polygon fill="#D0D3CD" points="63.9,81.9 66.7,92.9 70.9,102.4 80.2,105.1 86.3,99.6 89.6,84.1 87.9,74.1 	"/>
	<polygon fill="#D0D3CD" points="76.8,97.8 90.1,200.5 99.1,208.4 84.3,97.6 	"/>
	<path fill="#D0D3CD" d="M23.8,219.9h30.8l24.5,11.8l5.2,34.8c0,0-6.5,25.9-10,25C70.8,290.5,0,279.4,0,279.4l3.5-36.5L23.8,219.9z"
		/>
	<polygon fill="#D0D3CD" points="92,206.8 75.1,245.6 79.3,257.9 99.7,212 	"/>
	<polygon fill="#D0D3CD" points="39.5,203.4 39.5,222 46.9,222 46.1,204.8 	"/>
	<g>
		<polygon fill="#D3B5B1" points="31.3,189.9 59.2,181.7 74.7,186.4 91.2,201.2 93.4,204.6 87.1,213.9 27.2,200.4 		"/>
		<polygon fill="#D3B5B1" points="89,201.3 102,202.3 105,212.3 100.7,219.7 95.1,221 94.1,217.6 85.8,213.6 		"/>
	</g>
	<polygon fill="#AF8E8B" points="130.2,27 133.4,38.1 129.1,38.3 130.9,36 	"/>
	<polygon fill="#AF8E8B" points="92.5,73.8 93.7,73.4 116.9,94.6 131,77.5 131.5,77.6 116.8,95.1 	"/>
	<polygon fill="#BE9E9C" points="127.5,59.9 110.6,51.7 102.5,43.6 102.3,39.2 100.7,46.2 108.8,60.8 	"/>
	<polygon fill="#BE9E9C" points="31.8,135.6 31.6,137.1 65.3,147.2 65.4,145.3 	"/>
	<polygon fill="#BE9E9C" points="162.4,142.5 188.5,131.8 188.7,133.2 160.8,146.4 	"/>
	<polygon fill="#191719" points="113.1,239.2 105,266.4 92.3,346.7 99.7,346.7 	"/>
	<polygon fill="#9CA499" points="15.6,282 24.7,239.2 36.2,232.4 62.8,237.2 67.3,246.2 63.1,289.6 	"/>
	<polygon fill="#D0D3CD" points="17.1,282.4 25.3,247.9 31.4,237.2 43.2,235.6 61.6,239.2 65.4,248.9 63.7,275.5 61.9,289.6 	"/>
	<polygon fill="#9CA499" points="23.8,219.9 17.1,221.7 17.1,223.4 21.8,222 	"/>
	<polygon fill="#9CA499" points="15.6,280.4 12.1,281.3 12.1,283.1 15.6,282 	"/>
	<polygon opacity="0.21" fill="#9CA499" points="1.7,261 0,279.4 15.6,282 17.4,273.5 3.5,242.8 	"/>
	<polygon opacity="0.24" fill="#9CA499" points="18.8,266.8 2.1,257.1 3.5,242.8 20.4,259.9 	"/>
	<polygon opacity="0.42" fill="#9CA499" points="17,275.5 1.8,259.9 8.7,280.4 15.6,282 	"/>
	<polygon opacity="0.2" fill="#9CA499" points="62.7,283.1 49.1,279.4 27.2,259.9 38.1,283.1 47.8,287.2 61.9,289.6 	"/>
	<polygon opacity="0.41" fill="#9CA499" points="18.4,276.8 31.6,282 49.1,287.4 17.1,282.4 	"/>
	<polygon opacity="0.48" fill="#9CA499" points="0.2,276.8 13.8,276.8 18.8,266.8 15.6,282 0,279.4 	"/>
	<polygon opacity="0.45" fill="#9CA499" points="65.4,289.6 72.6,282.1 78.6,237.5 84.3,266.4 75.1,289.6 68.9,290.5 	"/>
	<polygon opacity="0.65" fill="#9CA499" points="39.5,219.9 46.8,219.9 42.2,204 39.5,203.4 	"/>
	<polygon fill="#9CA499" points="72.8,83.4 76.8,104.1 75.2,101.7 71.7,79.1 71.7,79.1 	"/>
	<polygon fill="#9CA499" points="84.7,100.8 80.8,76.4 83.8,90.8 	"/>
	<polygon fill="#9CA499" points="71.7,79.1 63.9,81.9 66.6,93.3 70.9,102.8 76.8,104.1 	"/>
	<polygon fill="#9CA499" points="80.8,76.4 87.9,74.1 89.3,82.2 89.6,84.2 87.9,97 86.4,99.8 84.7,100.8 	"/>
	<polygon fill="#D0D3CD" points="72.4,81.9 71.7,78.7 80.8,75.6 80.8,78.7 	"/>
	<polyline fill="#A7AAA5" points="79.7,235.2 80.8,242.8 91.4,216.3 88.5,214.9 79.7,233.9 	"/>
	<polygon fill="#A7AAA5" points="91.6,201.8 84.3,149.7 82.8,137.1 78.3,110 76.8,95.1 71.7,78.7 76.3,101.5 82.4,141.4 87.9,181.7 
		90.1,200.5 	"/>
	<g>
		<polygon fill="#9CA499" points="49.9,252.4 49.9,250.6 48.6,250.6 39.7,256.6 41.3,249.3 40.3,248.8 37.6,249.8 36.1,264.2 
			37.6,266.5 39.2,259.1 44.5,266.5 47.7,267.1 41,257.7 		"/>
		<polygon fill="#9CA499" points="53.8,252.1 51.9,252.1 42.9,257.6 49.3,267.1 51.6,267.1 45.7,257.2 53.8,252.9 		"/>
	</g>
	<polygon fill="#716B78" points="67.3,354.2 93.4,352.4 98.1,350.7 99.2,354.5 	"/>
	<polygon fill="#716B78" points="121,352.6 128.6,354.4 145.8,353.5 154.7,353.5 157.4,354.5 121.2,354.4 	"/>
	<polygon opacity="0.5" fill="#C1A29F" points="132.8,11.1 132.8,13.3 131.3,12.7 127.1,13.3 120.3,11.1 118.2,10.7 115.4,8.4 
		112.2,13.7 107.3,19 105.2,21.9 105.2,20.9 109.9,14.4 115.4,8.4 119.6,10.3 122,11.3 127.5,11.8 	"/>
	<polygon fill="#C1A29F" points="60.1,182.1 50.1,181.7 43.2,183.4 53.6,179.4 60.9,179.4 	"/>
	<polygon opacity="0.24" fill="#BA9894" points="51.9,141.4 53.8,159.1 55.4,169.3 47.8,181.7 60.1,182.1 65.1,165.4 65.4,145.3 	
		"/>
	<polygon opacity="0.2" fill="#BA9894" points="162.4,142.5 154.8,160.6 159.7,197.8 180.8,206 194.1,199.4 181.3,196.4 
		166.4,183.4 170.6,164.4 162.9,153 	"/>
	<polygon opacity="0.25" fill="#BA9894" points="102.1,40.2 102.5,44.7 110.6,51.7 125.3,59.2 108.1,87.5 92.5,73.8 94.4,73.2 	"/>
	<path opacity="0.4" fill="#CCAEAB" d="M105.2,20.9l6.8-8.7c0,0,0.9,15.2,0,16.2c-0.9,1-2,6.3-2,6.3l4.2,6.7l10,10.8l8.7,5.5
		l3.4-1.9l-3.6,5.7l-11.9-4.2l-10.1-5.5l-8.2-8l-0.1-4.5l1.7-2.4l1.2-9.8V20.9z"/>
	<path opacity="0.4" fill="#2F2341" d="M65.4,144.9l2.6-21.8c0,0,10.3,20.8,10.3,22.2c0,1.5,5.6,7.7,5.6,7.7l6.2,47.5L79,190.3
		L65.4,144.9z"/>
	<polygon opacity="0.1" fill="#2F2341" points="160.8,142.5 149.5,153 119.6,156.4 114.1,197.4 137.5,196.5 	"/>
	<polygon fill="#C1A29F" points="190.9,145.3 181.7,155.8 176.3,160.6 181.9,153 	"/>
	<polyline opacity="0.4" fill="#2F2341" points="170.6,137.1 174.8,120.8 166.4,110 162.4,142.5 170.3,139.1 	"/>
</g>
<g id="gymBuddy">
	<circle fill="#FFFFFF" cx="460.3" cy="77.9" r="60.5"/>
	<polygon fill="#C3A7A5" points="449.6,71.4 442.1,99.9 456.6,122.2 479.2,108.7 471.4,70.4 	"/>
	<polygon fill="#D3B4B1" points="448.7,36.2 471.4,36.2 474.7,50 477.1,64.6 468.6,83.1 464.1,93.6 454.8,89.4 451.1,79.9 
		442.1,61.4 	"/>
	<polygon fill="#D3B4B1" points="475.1,52.6 479.5,50.8 481.9,58.1 478.5,65.6 471.4,67.2 	"/>
	<polygon fill="#D3B4B1" points="446.2,50.8 442.1,50 438.5,55.5 440.3,62.5 447.5,67.2 447.5,59 	"/>
	<path fill="#51331F" d="M443,56.7l2.1-11.5l-1.1-7.5c0,0,2-3,3.5-3.6c1.5-0.6,3.9-4.2,3.9-4.2h11.2l6.3-2.7l5.1,6.9l5.1,3.6v7.5
		l-2.1,10.2l-0.5,4.4l-2.6-5.9c0,0,0.2-9.2-0.7-9.8c-0.9-0.6-4.2-5.4-4.2-5.4l-7.9,0.7L458,37l-5.8,4l-4.7,1.8v11.1V61L443,56.7z"/>
	<path fill="#4BBC97" d="M442.1,99.9l9.5,8.8h15.8l7-4.3l2.8-5.2l26.8,5.8l5.9,7.5l-28.1,20.1l-21.3,3.5l-24.5-3.5l-25.8-24.7
		c0,0,15.9-6.9,16.9-6.9C430.9,100.9,442.1,99.9,442.1,99.9z"/>
	<polygon fill="#A98686" points="442.1,99.9 452,107.9 460.1,108.7 466,107.6 470.1,105.7 477.2,99.2 474.4,104.4 467.4,108.7 
		451.6,108.7 	"/>
	<polygon fill="#C8A5A2" points="476.6,59.7 477.1,62.5 476.9,64.9 479.2,59.7 477.9,59 477.9,55.5 477.1,55.5 	"/>
	<polygon fill="#C8A5A2" points="443.8,57.5 442.3,61.4 442.6,62.5 441.2,60.2 442.1,58.3 442.1,55.5 443,53.9 443.5,53.9 443,56.7 
			"/>
	<circle fill="none" stroke="#4DBC96" stroke-width="5" stroke-miterlimit="10" cx="460.6" cy="75.5" r="60.5"/>
	<polygon fill="#AF8E8B" points="460.1,58.6 457.8,66.5 461.3,65.6 459.8,64.3 	"/>
	<polygon fill="#47AE89" points="442.1,99.9 454.3,113.9 481.9,117.1 493.9,117.6 507.1,108.7 504.1,105 477.2,99.2 474.4,104.4 
		467.4,108.7 451.6,108.7 	"/>
	<polygon opacity="0.5" fill="#AE9493" points="448.6,75.5 450.3,83.1 452.4,88.3 454.3,96.3 460.1,98.5 462.6,101.8 474.4,104.4 
		477.2,99.2 472.7,77.1 471.1,81.3 468.3,85.3 466.3,87.6 463.6,91 455.8,90.3 453,84.8 450.5,81.3 	"/>
	<polygon fill="#51331F" points="454.4,88.3 455.7,91 459.6,93.6 464.4,92.8 466.7,87.7 469,84.8 471.4,80.9 474.4,70.4 472.2,73.1 
		469.6,80.9 463.6,85.7 456.1,85.7 453.4,80.9 449.6,73.1 446,69.5 449.3,77.4 450.2,80.9 453,84.8 	"/>
</g>
</svg>
