<?xml version="1.0" encoding="UTF-8" standalone="no"?>
<svg width="586px" height="355px" viewBox="0 0 586 355" version="1.1" xmlns="http://www.w3.org/2000/svg" xmlns:xlink="http://www.w3.org/1999/xlink">
    <!-- Generator: Sketch 39.1 (31720) - http://www.bohemiancoding.com/sketch -->
    <title>Group 4</title>
    <desc>Created with Sketch.</desc>
    <defs>
        <polygon id="path-1" points="0.3066 159 75.4976 159 75.4976 0.9153 0.3066 0.9153"></polygon>
        <rect id="path-3" x="303" y="9" width="283" height="169" rx="8"></rect>
        <mask id="mask-4" maskContentUnits="userSpaceOnUse" maskUnits="objectBoundingBox" x="0" y="0" width="283" height="169" fill="white">
            <use xlink:href="#path-3"></use>
        </mask>
    </defs>
    <g id="Page-1" stroke="none" stroke-width="1" fill="none" fill-rule="evenodd">
        <g id="desktop_03_1" transform="translate(-306.000000, -186.000000)">
            <g id="Group-4" transform="translate(306.000000, 185.000000)">
                <g id="Page-1">
                    <g id="Group-9" transform="translate(147.000000, 0.515000)" fill="#4BBD97">
                        <path d="M98.5371,81.674 C98.5371,90.489 91.3911,97.634 82.5771,97.634 C73.7621,97.634 66.6161,90.489 66.6161,81.674 C66.6161,72.859 73.7621,65.714 82.5771,65.714 C91.3911,65.714 98.5371,72.859 98.5371,81.674" id="Fill-1"></path>
                        <path d="M110.0341,82.3406 C110.0341,97.9086 97.4131,110.5296 81.8451,110.5296 C66.2761,110.5296 53.6561,97.9086 53.6561,82.3406 C53.6561,66.7726 66.2761,54.1516 81.8451,54.1516 C97.4131,54.1516 110.0341,66.7726 110.0341,82.3406" id="Fill-3" fill-opacity="0.3"></path>
                        <path d="M125.3675,82.3406 C125.3675,106.3776 105.8815,125.8626 81.8455,125.8626 C57.8085,125.8626 38.3225,106.3776 38.3225,82.3406 C38.3225,58.3036 57.8085,38.8186 81.8455,38.8186 C105.8815,38.8186 125.3675,58.3036 125.3675,82.3406" id="Fill-5" fill-opacity="0.3"></path>
                        <path d="M164.7658,82.674 C164.7658,128.066 127.9688,164.863 82.5768,164.863 C37.1848,164.863 0.3878,128.066 0.3878,82.674 C0.3878,37.282 37.1848,0.485 82.5768,0.485 C127.9688,0.485 164.7658,37.282 164.7658,82.674" id="Fill-7" fill-opacity="0.3"></path>
                    </g>
                    <polygon id="Fill-10" fill="#373737" points="209.2659 118.1139 223.5989 77.8559 239.2659 77.8559 223.5989 114.3799"></polygon>
                    <path d="M228.345,81.1972 C228.345,82.0252 227.673,82.6972 226.845,82.6972 C226.017,82.6972 225.345,82.0252 225.345,81.1972 C225.345,80.3692 226.017,79.6972 226.845,79.6972 C227.673,79.6972 228.345,80.3692 228.345,81.1972" id="Fill-11" fill="#7A7A7A"></path>
                    <g id="Group-40" transform="translate(21.000000, 6.515000)">
                        <path d="M81.5023,38.0619 L81.5023,14.3329 L90.9863,2.5249 L111.7733,4.9259 L115.2423,50.2599 L108.3633,53.5769 C108.3633,53.5769 81.5023,51.6209 81.5023,38.0619" id="Fill-13" fill="#D2B6B1"></path>
                        <polygon id="Fill-15" fill="#D2B6B1" points="80.1925 38.0678 73.3505 67.6358 89.5145 92.3048 106.4635 92.3048 110.4635 79.5928 106.4635 49.0848"></polygon>
                        <path d="M26.8027,84.678 C32.7347,82.136 80.1927,65.186 80.1927,65.186 L106.4637,71.119 L140.3617,79.593 L157.3107,96.542 L117.4807,197.898 L63.2437,197.898 L26.8027,84.678 Z" id="Fill-17" fill="#D2B4B0"></path>
                        <g id="Group-21" transform="translate(53.000000, 190.000000)">
                            <mask id="mask-2" fill="white">
                                <use xlink:href="#path-1"></use>
                            </mask>
                            <g id="Clip-20"></g>
                            <polygon id="Fill-19" fill="#1A1A1B" mask="url(#mask-2)" points="66.4806 0.9153 75.4976 64.8643 61.9886 158.9323 47.2266 158.9323 39.0566 43.6783 24.7176 159.0003 10.3066 158.9323 0.3066 58.0843 8.4436 1.3053"></polygon>
                        </g>
                        <polygon id="Fill-22" fill="#D2B6B1" points="53.3067 75.7763 30.8067 80.4403 15.5527 96.5423 0.2987 194.8473 26.8027 210.1013 40.9767 188.0683"></polygon>
                        <polygon id="Fill-24" fill="#D2B6B1" points="10.701 184.678 38.667 170.271 75.108 188.068 92.057 206.712 80.193 214.339 4.769 203.322"></polygon>
                        <polygon id="Fill-26" fill="#D2B6B1" points="143.3281 82.5593 157.3111 87.2203 167.4811 102.4743 167.4811 112.6443 175.9551 173.9323 159.6421 200.7793 138.6671 192.3053 128.4971 114.3393"></polygon>
                        <polygon id="Fill-28" fill="#D3B6B1" points="145.4467 188.0678 172.5657 200.7798 209.8537 111.7968 200.5997 105.8648 152.2267 141.6698"></polygon>
                        <polyline id="Fill-30" fill="#D2B4B0" points="200.5993 121.5424 209.8533 105.8644 213.2433 92.3054 206.9213 82.5594 195.4463 92.3054 195.4463 109.6784 200.5993 116.8814"></polyline>
                        <polygon id="Fill-32" fill="#D2B6B1" points="84.1925 23.661 75.7175 19.424 75.7175 31.316 84.1925 34.678"></polygon>
                        <polygon id="Fill-34" fill="#938F99" points="113.4806 341.4576 136.3616 348.9996 101.2266 348.9326 100.3726 341.4576"></polygon>
                        <polygon id="Fill-36" fill="#938F99" points="64.1231 341.2288 79.3501 341.2288 78.7181 348.9998 48.9041 348.9998"></polygon>
                        <polygon id="Fill-38" fill="#4C4C4C" points="84.1925 0.7797 106.4635 0.7797 115.9455 0.7797 104.3725 6.1207 86.7925 6.1207 84.1925 27.8987 75.7175 19.4237 79.9555 2.5307"></polygon>
                    </g>
                    <polygon id="Fill-41" fill="#392A50" points="94.3503 74.1508 116.8313 96.1138 131.4633 78.6338 161.3623 86.1078 178.3113 90.1518 188.4803 108.9898 188.4803 123.4468 188.4803 132.7808 162.4193 143.4958 140.4803 197.4298 94.3503 198.8198 76.7513 185.1298 64.9383 144.4338 31.3653 136.4858 35.1063 112.3798 35.9323 98.8198 52.5993 85.2918 69.4133 82.2918"></polygon>
                    <polygon id="Fill-42" fill="#D0D3CD" points="63.9044 85.1472 69.4124 104.4472 79.1274 104.4472 89.5994 85.1472 89.5994 75.8552"></polygon>
                    <polygon id="Fill-43" fill="#D0D3CD" points="74.3067 98.8201 83.9827 188.6611 94.3507 198.8201 79.1277 98.8201"></polygon>
                    <g id="Group-50" transform="translate(0.000000, 211.515000)" fill="#D0D3CD">
                        <path d="M12.3872,12.9193 L54.5992,9.3393 L79.1272,21.1353 L84.3282,55.9323 C84.3282,55.9323 77.7912,81.8353 74.3062,80.9323 C70.8222,80.0293 0.0002,68.8653 0.0002,68.8653 L12.3872,12.9193 Z" id="Fill-44"></path>
                        <polygon id="Fill-46" points="84.3285 6.8757 76.7515 30.9327 81.9705 40.1537 94.3505 9.3387"></polygon>
                        <polygon id="Fill-48" points="39.5107 0.3293 39.5107 12.9193 47.8027 9.3393 47.8027 5.1013"></polygon>
                    </g>
                </g>
                <use id="Rectangle-11" stroke="#979797" mask="url(#mask-4)" stroke-width="2" fill="#D8D8D8" xlink:href="#path-3"></use>
            </g>
        </g>
    </g>
</svg>