<?xml version="1.0" encoding="utf-8"?>
<!-- Generator: Adobe Illustrator 17.1.0, SVG Export Plug-In . SVG Version: 6.00 Build 0)  -->
<!DOCTYPE svg PUBLIC "-//W3C//DTD SVG 1.1//EN" "http://www.w3.org/Graphics/SVG/1.1/DTD/svg11.dtd">
<svg version="1.1" id="illustration02" xmlns="http://www.w3.org/2000/svg" xmlns:xlink="http://www.w3.org/1999/xlink" x="0px"
	 y="0px" viewBox="0 0 667.1 370.2" enable-background="new 0 0 667.1 370.2" xml:space="preserve">
<g id="bg">
	<path opacity="0.7" fill="#271F33" d="M355.9,352.7c0,0,223.2-4.5,233.2-7.2s116-46.7,60-133.7s-75-133-81-153s-83.9-80-164-51
		s-108.3,29-166.7,26s-171.4,58-185.4,108s16,115.9-33,147s0,64,103,64S355.9,352.7,355.9,352.7z"/>
	<path opacity="0.7" fill="#271F33" d="M231.8,352.7c-30.7,0-146,36.4-202.7-4.2c-15-10.8-26.7-75.4,0-100.7s44-82,48-108.7
		s20.7-56.8,42.7-74.7s96.7-17.9,120.7-21.3s30.7-7.3,58-19.3c27.3-12,110.2-34.7,171.8-6s75.6,17.9,111.6,46.6
		s110.7,115.4,76.7,177.4s-24.3,73-41.3,90c-38.6,38.7-184.7,30.9-206.1,33.4C389.8,367.6,231.8,352.7,231.8,352.7z"/>
	<path opacity="0.8" fill="#201A28" d="M415.5,364.5c24.2,2.6,186-8.2,202.7-16.3c16.7-8,58-36.7,29.3-118.7s-28-78.7-38-117.3
		s-32-84.6-119.3-88.6s-140.7-2.7-191.3-4c-50.7-1.3-113.4,6.8-163.3,49.3s-106.7,130-107.3,160c-0.7,30-38.7,109-18,119.5
		c20.7,10.5,179.3,9.1,216.7,16.5C286.8,376.9,415.5,364.5,415.5,364.5z"/>
	
		<radialGradient id="SVGID_1_" cx="354.8977" cy="326.4512" r="239.1743" gradientTransform="matrix(1 0 0 0.8 0 65.2902)" gradientUnits="userSpaceOnUse">
		<stop  offset="0" style="stop-color:#131118"/>
		<stop  offset="1" style="stop-color:#201A28"/>
	</radialGradient>
	<path opacity="0.8" fill="url(#SVGID_1_)" d="M118.3,359.8c60.5,8.5,106.8,2.8,130.9,6.6s134,0.6,158.3-5.4
		c24.3-6,127.2-1,148.5-6.6c21.3-5.7,79-22.7,76.4-53.9s-35.5-125-76.4-149.9s-122.3-35.7-165.3-62.3s-114.3-25-160.3,9.6
		s-52,59.7-102.7,99.1S23.3,346.5,118.3,359.8z"/>
</g>
<g id="centerMan">
	<g>
		<g>
			<polygon fill="#18181B" points="437.9,348 379.2,339.8 246,342.9 288.1,354.4 			"/>
			<polygon fill="#989898" points="247.6,341.5 290.5,353.1 290.7,359.8 245,344.1 			"/>
			<polygon fill="#989898" points="290.7,359.8 442.3,355 437.9,348 290.5,353.1 			"/>
			<polygon fill="#989898" points="243.7,344.1 290.7,359.8 290.8,364.7 241.4,346.3 			"/>
			<polygon fill="#989898" points="290.8,364.7 450.2,359.7 444.5,353.9 290.7,359.8 			"/>
			<polygon fill="#989898" points="379.5,339.9 437.9,348 527.9,269.2 486.2,270.5 			"/>
			<polygon fill="#989898" points="247.6,341.5 381.4,338.6 379.5,339.9 250.6,342.7 			"/>
			<polygon fill="#CECECD" points="243.7,344.1 245,344.1 290.2,358.8 290.7,359.8 			"/>
			<polygon fill="#CECECD" points="290.2,358.8 441,353 444.5,353.9 290.7,359.8 			"/>
		</g>
		<polygon fill="#716F78" points="381.8,339.5 437.9,348 434.1,348.1 379.6,339.8 		"/>
		<polygon fill="#C5C1CB" points="389.3,341.6 389.3,341.1 390.1,340.6 393,341.1 392.5,341.5 392.5,342 		"/>
		<polygon fill="#C5C1CB" points="419.2,346.1 419.2,345.6 420,345.1 423.5,345.6 423.1,346 423.1,346.5 		"/>
	</g>
	<g>
		<polygon fill="#D3B4B1" points="338.8,271.1 353.2,263.1 358.2,270.8 357.9,295.9 344.8,296.1 339.1,286.2 		"/>
		<polygon fill="#D3B4B1" points="336.7,314.6 337.4,306.7 339.1,286.2 353.6,285.9 361.2,310.4 349.1,321.7 339.5,314.6 		"/>
		<polygon fill="#D3B4B1" points="339,280.7 336.7,279.5 334.7,282.3 335.7,284.5 337.2,287.5 339.8,288.3 		"/>
		<polygon fill="#D3B4B1" points="361,279.5 357.7,280.6 356.3,286.9 358.4,286.9 360.3,285.8 361.8,283.7 		"/>
		<polygon fill="#D3B4B1" points="384.4,306 389.9,303.2 398.4,301.3 409.1,305.6 446.7,297.3 456.5,305.5 423.6,327.5 398.9,329.9 
			381.8,330.2 		"/>
		<polygon fill="#D3B4B1" points="446.1,298.3 465.8,284.3 490.6,277.8 493.1,282 452.5,308.5 		"/>
		<polygon fill="#D3B4B1" points="324,313.2 307.6,317 296.1,324 291.6,331.3 266.6,348.8 302.9,347.4 339.8,330.9 		"/>
		<polygon fill="#3A2B51" points="337.4,306.7 353.8,317.3 360,306.4 383.9,305.1 396.9,300.6 409.1,304.2 408.7,329.2 388.3,335.8 
			382.7,349.9 324.5,352 291.6,331.3 296.1,322.5 307.6,316 322.1,313.2 		"/>
		<polygon fill="#D3B4B1" points="266.2,348.5 276.7,337 321.3,347.3 330.7,343.6 343.5,353.8 336.6,354.9 321.9,355.4 266.1,350.3 
					"/>
		<path fill="#D3B4B1" d="M487,279.9l6.1-7c0,0,5.4-2.3,6.2-1.8s7.2,1.8,7.2,1.8v2.6l-13.4,6.9L487,279.9z"/>
		<g>
			<polygon points="340.2,283 336.7,279.7 336.7,267.5 343.6,264.9 349,261.8 353.4,259.5 353.2,263.1 358.2,266.3 359.3,279.9 
				358.1,280.9 357.4,275.4 355.2,269.2 348.5,269.2 342,273.1 			"/>
			<polygon fill="#5B5764" points="336.7,267.6 343.8,264.8 348.5,262 353.2,259.9 348.5,262.6 344.2,266.3 338.4,267.4 336.7,277 
							"/>
			<polygon fill="#36323F" points="353.3,263.1 358.5,266.3 359.3,279.6 358.5,270.1 358.2,266.9 354.7,265.2 			"/>
		</g>
	</g>
</g>
<g id="stars">
	<polygon fill="#F4F3F7" points="563.8,227.1 569.1,211.1 569.1,224.4 578.5,228.2 568.1,230.8 565.1,241.2 563.8,232.4 
		553.1,226.1 	"/>
	<polygon fill="#F4F3F7" points="193.1,257.7 193.1,245.7 200.5,257.7 212.5,257.7 199.1,263 195.8,280.6 193.1,263.1 180.5,254.4 	
		"/>
	<polygon fill="#F4F3F7" points="137.8,291.5 138.8,289.2 139.5,287.6 143.5,291.5 140.6,293.9 	"/>
	<polygon opacity="0.82" fill="#F4F3F7" points="265.1,132.9 269.4,132.9 267.3,136.4 	"/>
	<polygon opacity="0.89" fill="#FFFFFF" points="381.8,167.5 381.8,162.3 383.5,167.5 388,167.5 384.9,169.3 383.5,174.3 
		382.4,169.4 378.7,168.9 	"/>
	<polygon fill="#FFFFFF" points="205.5,166 208,162.3 208,166 210.3,168.3 207.9,168.3 205.5,172.3 205.5,168.3 201.5,167.3 	"/>
	<polygon opacity="0.86" fill="#FFFFFF" points="112.3,156.3 111,149.3 113.8,154.8 118.3,154 115.8,156.3 116,164 113.8,158.5 
		106.8,158.3 	"/>
	<polygon fill="#FFFFFF" points="483.7,53.5 484.5,45.4 488.4,52.7 494.7,53.3 489.1,56.3 488.4,65.4 484.7,56.3 475.6,55.8 	"/>
	<path opacity="0.81" fill="#FFFFFF" d="M75.6,271.3v-6.8l2.8,3.4h4.8l-3.8,3.4c0,0-0.2,1.3,0,2.5s-2.5-1.3-2.5-1.3l-4,1.3
		L75.6,271.3z"/>
	<polygon fill="#FFFFFF" points="352.5,107 353.8,106 353.8,108.8 	"/>
	<polygon fill="#FFFFFF" points="325.5,87.9 326.8,85.3 326.8,87.9 329.3,89.4 327.4,89.4 325.5,91.8 325.5,89.4 324,88.5 	"/>
	<polygon fill="#FFFFFF" points="310,99.8 310,97.8 312.3,99.8 311.2,102.8 	"/>
	<polygon opacity="0.89" fill="#FFFFFF" points="333.9,113.9 334.2,112.1 334.5,114 335.9,114.2 334.8,114.6 334.1,116.2 334,114.5 
		332.8,114.1 	"/>
	<polygon fill="#FFFFFF" points="552.4,179.4 552.9,176.3 554,178.7 556,179.5 554.5,180.1 554.1,183.3 553,180.8 550.2,181.3 	"/>
	<polygon opacity="0.89" fill="#FFFFFF" points="539.1,205.8 539.4,204.1 539.7,205.9 541.2,206.2 540.1,206.6 539.3,208.1 
		539.2,206.5 538,206.1 	"/>
	<polygon fill="#FFFFFF" points="315.9,148.9 317.2,147.9 317.2,150.6 	"/>
	<polygon fill="#FFFFFF" points="427.8,182.7 429,180.1 429,182.7 431.5,184.2 429.7,184.2 427.8,186.6 427.8,184.2 426.3,183.3 	
		"/>
	<path opacity="0.81" fill="#FFFFFF" d="M518.3,247.9v-6.8l2.8,3.4h4.8l-3.8,3.4c0,0-0.2,1.3,0,2.5s-2.5-1.3-2.5-1.3l-4,1.3
		L518.3,247.9z"/>
	<polygon fill="#FFFFFF" points="204.7,97.4 205.2,94.6 205.9,97.1 208.7,97.9 206.9,98.4 205.7,101.2 205.1,98.9 203.4,98.5 	"/>
	<polygon fill="#FFFFFF" points="200.9,145.1 202.2,144 202.2,146.8 	"/>
	<polygon fill="#FFFFFF" points="96.5,250.5 97.8,249.4 97.8,252.2 	"/>
	<polygon fill="#F4F3F7" points="465.6,80.3 467.1,76 467.1,79.6 469.6,80.7 466.8,81.3 466,84.2 465.6,81.8 462.7,80.1 	"/>
	<polygon fill="#FFFFFF" points="437.3,102.4 438.6,101.4 438.6,104.1 	"/>
	<polygon opacity="0.89" fill="#FFFFFF" points="397.6,162 397.9,160.2 398.2,162.1 399.7,162.3 398.5,162.7 397.8,164.3 
		397.7,162.6 396.5,162.2 	"/>
	<polygon fill="#FFFFFF" points="552.5,203.8 553.8,202.7 553.8,205.5 	"/>
	<polygon fill="#FFFFFF" points="326.7,106 327.4,105 327.4,106 327.4,107 	"/>
	<polygon fill="#FFFFFF" points="355.2,81.7 354.9,82.9 353.8,81.3 355,79.6 	"/>
	<path opacity="0.81" fill="#FFFFFF" d="M137.6,174l3.6-1.4l-1.2,2.1l1,2.5l-2.6-1.2c0,0-0.7,0.1-1.3,0.5c-0.6,0.4,0.2-1.6,0.2-1.6
		l-1.5-1.8L137.6,174z"/>
	<polygon fill="#FFFFFF" points="137.2,165 138.4,164 138.4,166.8 	"/>
	<polygon fill="#F4F3F7" points="390.7,194.9 392.4,193 393.5,191.7 396.2,196.5 392.8,198 	"/>
	<polygon fill="#F4F3F7" points="365.8,35.6 367.3,31.3 367.3,34.9 369.8,35.9 367,36.6 366.2,39.5 365.8,37.1 362.9,35.4 	"/>
	<polygon fill="#F4F3F7" points="225.9,77.9 214.7,73.5 224.2,74 227.3,67.4 228.7,74.9 236.1,77.4 229.7,78.1 224.8,85.4 	"/>
	<polygon fill="#F4F3F7" points="616.6,259.1 616.4,254.5 617.7,257.9 620.5,258 618,259.6 618.3,262.6 617.1,260.4 613.8,259.8 	
		"/>
	<polygon opacity="0.89" fill="#FFFFFF" points="601.1,269 601.4,267.3 601.7,269.1 603.2,269.4 602.1,269.8 601.3,271.3 
		601.2,269.7 600,269.3 	"/>
	<polygon opacity="0.89" fill="#FFFFFF" points="335.6,188.9 335.7,188.3 335.8,189 336.4,189.1 335.9,189.2 335.6,189.8 
		335.6,189.2 335.1,189.1 	"/>
	<polygon fill="#F4F3F7" points="164,195.9 164,194.2 163.9,193 167.5,194.2 166.5,196.6 	"/>
	<polygon fill="#FFFFFF" points="348.1,194.5 348.5,192.6 348.9,194.3 350.7,194.9 349.5,195.2 348.7,197 348.3,195.5 347.2,195.1 	
		"/>
	<polygon fill="#FFFFFF" points="173.9,276.4 175.2,273.8 175.2,276.4 177.7,277.9 175.8,277.9 173.9,280.3 173.9,277.9 172.4,277 	
		"/>
	<path opacity="0.81" fill="#FFFFFF" d="M140.5,261l3.8,0.7l-2.2,1.2l-0.5,2.6l-1.5-2.4c0,0-0.7-0.3-1.4-0.3c-0.7,0,1-1.2,1-1.2
		l-0.3-2.3L140.5,261z"/>
	<polygon fill="#FFFFFF" points="115.5,314.1 115.2,315.4 114.1,313.8 115.3,312.1 	"/>
	<polygon fill="#FFFFFF" points="311.1,217 311.9,214.3 312.3,216.8 315,217.9 313.2,218.2 311.7,220.9 311.3,218.5 309.7,217.9 	
		"/>
	<polygon fill="#FFFFFF" points="245.1,220.6 245.5,218.7 245.9,220.3 247.7,220.9 246.5,221.2 245.7,223.1 245.3,221.5 
		244.2,221.2 	"/>
	<polygon fill="#FFFFFF" points="235.7,218.7 236.4,217.7 236.4,218.7 236.4,219.7 	"/>
	<polygon fill="#F4F3F7" points="210.3,148.9 211.2,147.5 211.8,146.5 214.2,149.5 212,150.9 	"/>
	<polygon fill="#F4F3F7" points="296.6,96.8 296.8,92.2 297.8,95.7 300.6,95.9 298,97.4 298,100.4 297,98.2 293.7,97.3 	"/>
</g>
<g id="figure1">
	<polygon fill="#938F98" stroke="#231F20" stroke-miterlimit="10" points="465.1,95.8 531.1,109.1 506.5,203.1 445.8,185.8 	"/>
	<polygon fill="#C9C4D2" points="530.1,109.1 546.1,109.1 518.8,199.1 505.5,203.1 	"/>
	<polygon fill="#FFFFFF" points="473.6,118.7 477.7,111.9 483.1,113.3 484.3,120.1 483.7,125.5 479.3,128.2 	"/>
	<polygon fill="#FFFFFF" points="486,131 489.3,132.5 479.3,136.3 481.1,131 480.6,122.5 480.8,118.7 	"/>
	<polygon fill="#FFFFFF" points="482.7,129.3 493.6,129.3 491.7,154 481.3,153 477.9,139 	"/>
	<polygon fill="#FFFFFF" points="489.3,130.8 497.3,120.7 499.1,116.7 500.8,118.7 497.3,129.3 491.5,138.6 	"/>
	<polygon fill="#FFFFFF" points="499.3,118.7 493.6,102.5 493.6,100 503,116.7 	"/>
	<polygon fill="#FFFFFF" points="481.3,134.5 476.6,138.8 469.3,150 469.3,154.8 481.3,141.2 	"/>
	<polygon fill="#FFFFFF" points="470.2,149.6 452.3,154.9 452.9,156.9 469.7,154.8 	"/>
	<polygon fill="#FFFFFF" points="491.1,152.4 497,154.8 499.7,162.3 499,176.3 497.3,184.4 492.2,177 484.3,159.8 481.3,152.4 	"/>
	<polygon fill="#FFFFFF" points="485.8,152.4 481.6,153 475.3,174.3 479.3,176.3 489.3,164.3 	"/>
	<polygon fill="#FFFFFF" points="498.3,175.5 501.7,182.5 503,203.6 495.1,181.1 	"/>
	<polygon fill="#FFFFFF" points="476.4,170.6 475.3,194 476.4,196.2 479.3,192.8 481.3,178.8 479.3,171.8 	"/>
	<polygon fill="#FFFFFF" points="494.5,101.7 493.6,97.3 492.5,95.8 490.5,95.8 490.5,98.7 492,100 490.5,100.9 493.6,102.5 	"/>
	<polygon fill="#FFFFFF" points="455.6,154 452.3,153.3 450.7,156.1 451.6,158.9 453.1,156.9 	"/>
</g>
<g id="figure2">
	<path fill="#726F78" d="M99.8,219.8l4.7-13.6l9.3,51.7c0,0-2.7,20.6-2.7,18.3L99.8,219.8z"/>
	<path fill="#FFFFFF" d="M108.5,218.6l2.8,1l2.5,6.8l-2.7,3.2c0,0-4.2-2.7-4.3-2.8c-0.2-0.2-1-5.3-1-5.3L108.5,218.6z"/>
	<polygon fill="#FFFFFF" points="108,224.9 105.8,231.3 102.7,234.2 106.8,254.5 111.3,244.1 114.8,236.4 111.3,231.9 109.8,226.9 	
		"/>
	<polygon fill="#FFFFFF" points="109.8,234.1 117,226.8 119.6,223.4 121.5,226.1 117.8,235.8 113.2,239.9 	"/>
	<polygon fill="#FFFFFF" points="120.2,227.9 118.8,215.9 119.8,209.9 121.5,207 124.1,223.3 	"/>
	<polygon fill="#FFFFFF" points="121.5,209.3 122,205.5 121.5,202.1 120.7,201 120,206.1 119,204.3 119.3,206.8 120.5,209.4 	"/>
</g>
<g id="figure4">
	<polygon fill="#938F98" points="380.8,49.8 422.3,52.3 419.1,104.1 378.7,107.4 	"/>
	<polygon fill="#635F69" points="422.3,52.3 437.3,69 426.3,120.1 419.1,104.1 	"/>
	<g>
		<polygon fill="#E6E4E9" points="400.8,69 405.3,67.8 409.6,72 404.5,84.5 395.8,83.7 390.7,77.1 393.1,72 		"/>
		<polygon fill="#FFFFFF" points="400.3,64.8 401.6,65.8 402.8,68.7 399.6,73.2 397.1,71.2 397.1,67.6 398.7,64.8 		"/>
		<polygon fill="#E6E4E9" points="404.1,82.5 410.6,85.8 412,90 404.1,90 395.7,87.5 		"/>
		<polygon fill="#E6E4E9" points="400.2,81.4 395.7,82.5 388.5,89 390.7,92.2 395.8,91.3 403.8,89 		"/>
		<polygon fill="#E6E4E9" points="409.6,86.8 412,89 410.7,101 407.5,92.2 		"/>
		<polygon fill="#E6E4E9" points="390.7,88.3 388.5,90 388.5,91 390.7,102.3 392.5,102.3 393.6,94.2 		"/>
		<polygon fill="#E6E4E9" points="410.8,99.6 412.8,101 413.8,102.4 410.5,102.4 410.1,99.6 		"/>
		<polygon fill="#E6E4E9" points="392.1,101.8 393.1,102.3 393.1,103.6 389.2,106 387.6,106 389.4,103.9 390.7,101.8 		"/>
		<polygon fill="#D8D3DD" points="392.8,72.5 389.5,76.1 393.3,86.1 395.3,86.8 396.8,80.8 393.8,77.8 393.3,74.2 		"/>
		<polyline fill="#D8D3DD" points="393.6,86.8 395.7,88.3 400.2,81.4 395.7,82.5 393.3,86.1 		"/>
		<polygon fill="#D8D3DD" points="404.7,67.6 407.3,67.5 409.4,69 410,72.2 411.5,77.4 410,79 403.8,73.5 		"/>
		<path fill="#D8D3DD" d="M411.3,77.9l1.2,1.5l-1,6.1l-0.2,1.2l-0.9-1l-0.7-5.3c0,0,0.6-2.3,0.8-2.3S411.3,77.9,411.3,77.9z"/>
		<polygon fill="#38343D" points="398.2,79.3 399.6,78 401.8,78.2 403.1,80 403.4,82.4 401.7,84 399.5,83.6 398.5,82.5 398.2,81.2 
					"/>
		<polygon fill="#38343D" points="399.9,78.4 401,77.3 403.4,77.6 404.6,79.4 405,81.9 403.4,83.6 401.1,83 399.7,80.6 		"/>
		<polygon fill="#56535C" points="399.7,77.9 401.8,78.1 402.8,79 403.6,80.9 403.1,83 402.4,83.7 401.6,83.9 402.7,82.8 403,81.4 
			402.8,80 401.7,78.5 399.4,78.1 		"/>
		<polygon fill="#56535C" points="401,77.3 401.4,77.2 403.7,77.3 405,79.1 405.3,81.8 404.4,83 403.3,83.6 403.2,83.5 404.2,82.7 
			404.7,81.4 404.4,79.3 403.4,77.6 		"/>
		<path fill="#676669" d="M399.9,80.8l0.2-0.3l0.4,0.1l0.2,0.3v0.5l-0.4,0.1l0.3-0.3l-0.2-0.5c0,0-0.4-0.1-0.3-0.1
			c0,0.1-0.1,0.3-0.1,0.3l0.2,0.5l-0.3-0.4V80.8z"/>
		<polygon fill="#D8D3DD" points="412.5,88 411.1,85.3 410.4,85.6 410.1,87.3 410.6,87.7 411.1,90 412,89.2 		"/>
	</g>
</g>
<g id="figure3">
	<polygon fill="#938F98" points="133.8,99.1 158.9,164 196.5,145.4 180.5,81 	"/>
	<polygon fill="#716A7D" points="133.8,99.1 127.8,129.8 157.8,181.8 158.9,164 	"/>
	<g>
		<polygon fill="#FFFFFF" points="162.7,103.6 165.8,100.7 166.9,102.4 168.7,106.1 167.7,109.2 165.4,109.8 163.1,106.4 		"/>
		<path fill="#FFFFFF" d="M161.7,112.6l5.5-2.2l2.6,0.4l4.9,1.4c0,0-2.5,8.9-2.5,9.3c0.1,0.4-0.9,3.4-0.9,3.4l-4.1-0.4l-3.6-6.1
			L161.7,112.6z"/>
		<polygon fill="#FFFFFF" points="162.8,113 154.6,109.8 153.2,111.4 157.8,116 164.4,116.1 		"/>
		<polygon fill="#FFFFFF" points="153.3,112.3 152,109 156.6,97.8 157.6,98 155.6,109.7 		"/>
		<polygon fill="#FFFFFF" points="172.5,111.6 173.9,111 176.6,114.4 177.8,123.3 175.8,122.2 172.3,114.3 		"/>
		<polygon fill="#FFFFFF" points="175.9,121 170.3,124.3 171.3,124.9 177.8,123.3 178.6,122.3 		"/>
		<path fill="#FFFFFF" d="M171,122.5l5.1,4.3c0,0,2.3,3.4,2.1,3.6s-0.8,5.5-0.8,5.5l-1.5,4.8l-0.9,4.6l-3.4-2.6l-0.9-12l-2.6-6.2
			L171,122.5z"/>
		<polygon fill="#FFFFFF" points="167,122.2 165.3,128.9 165.5,135 170.8,144 172.4,139.6 170.7,130.4 		"/>
		<path fill="#FFFFFF" d="M173.4,140.5l-1.8,3.3l4.6,12.3l1.1,2.2c0,0-1.2-12.9-0.9-13.1s-1.7-6-1.7-6L173.4,140.5z"/>
		<path fill="#FFFFFF" d="M169.9,141c-0.6,0.3,0.1,4,0.1,4l4.6,4l-0.7-5l-2.5-4.2L169.9,141z"/>
	</g>
</g>
<g id="figure5">
	<polygon fill="#6E6A73" points="287.7,145.9 291.3,168.3 303,167.4 302.7,144.7 	"/>
	<g>
		<polygon fill="#FFFFFF" points="297.1,151.2 295.2,152.7 295.4,153.7 296.2,154.2 296.8,151.9 		"/>
		<polygon fill="#FFFFFF" points="295.2,152.6 294,153.8 294,155.2 294.9,157.2 295.1,157.9 296.4,156.6 296.2,155.1 296,153 		"/>
		<polygon fill="#E3DEE7" points="297.5,150.8 297.8,151.6 297.6,152.4 296.3,152.9 296.3,152 296.7,151.2 		"/>
		<polygon fill="#FFFFFF" points="295.2,157 294.9,159.5 296,160.9 296.2,162 297.4,161.4 297.7,161.3 296.9,158.4 296.4,156.6 		
			"/>
		<polygon fill="#FFFFFF" points="296.4,166.7 297.4,161.4 296.4,161.4 296,162.7 296.2,166.4 		"/>
		<g>
			<polygon fill="#FFFFFF" points="294.9,153.2 294.1,153.8 292.3,155.4 292.8,156.5 295,155.6 			"/>
			<polygon fill="#FFFFFF" points="292.5,155.5 291.7,159 292.9,157 293.2,155.8 			"/>
		</g>
		<polygon fill="#FFFFFF" points="296.3,156.9 299,155.6 299.9,155.4 299.8,156.6 297,159.1 295.5,158 		"/>
		<path fill="#FFFFFF" d="M299.3,155.7l-0.2,2.3c0,0,1,2.6,1.1,2.9c0.1,0.3,0-4.5,0-4.5l-0.4-1L299.3,155.7z"/>
		<polygon fill="#FFFFFF" points="296.6,157 297.1,154.2 296.4,153.4 295.8,153 295.2,152.7 296.2,157.3 		"/>
		<polygon fill="#EEEAF0" points="295.8,152.8 297,153.4 298.6,155.3 298.2,156.2 295.7,154.7 295.2,153.8 		"/>
		<polygon fill="#EEEAF0" points="298.3,156.2 299.1,156.2 299.1,152.6 298.3,154.4 		"/>
		<polygon fill="#FFFFFF" points="300.1,160.5 300.3,161.3 301.3,159.9 		"/>
		<polygon fill="#FFFFFF" points="296.2,166.1 297.6,166.9 295.8,166.9 		"/>
	</g>
</g>
<g id="figure6">
	<polygon fill="#5B5561" points="249.2,199.4 254.4,211.1 261.8,208.1 259.8,196.2 	"/>
	<g>
		<path fill="#FFFFFF" d="M255.8,201.7c0.1,0,0.6,0,0.6,0l0,0.6l-0.1,0.5l-0.4,0.2l-0.4-0.6L255.8,201.7z"/>
		<polygon fill="#FFFFFF" points="256.3,202.2 256.7,203.4 257,203.6 256.5,204 256.2,203.8 256.2,202.7 		"/>
		<path fill="#FFFFFF" d="M256.6,203.3l0.6,0.5l0,0.7l-0.2,1l0,0.1l-0.6,0.5c0,0-0.5-1.6-0.5-1.6c-0.1,0,0.3-0.9,0.3-0.9
			L256.6,203.3z"/>
		<polygon fill="#FFFFFF" points="257.8,206 257,205.3 256.4,206.1 255.2,206.1 254.5,206.6 255.4,207.1 257.3,207.2 258,206.6 		
			"/>
		<polygon fill="#FFFFFF" points="254.6,206.5 254.7,207.2 255.9,209.4 256.1,209.4 255.8,207.9 255.4,207.1 255.2,206.8 		"/>
		<path fill="#FFFFFF" d="M256.4,206.6c0,0.1,0.8,1.2,0.8,1.2l0.9,0.6l0.4-0.3l-0.7-1.3l-0.9-0.8L256.4,206.6z"/>
		<path fill="#FFFFFF" d="M255.8,209.2l0.3,0.2c-0.1,0-1.2,0.3-1.2,0.3l0.7-0.5L255.8,209.2z"/>
		<path fill="#FFFFFF" d="M258.3,208.5l2.5-1c0,0-1.4,0.1-1.5,0.1c-0.1,0-0.5,0-0.5,0l-0.6,0.4L258.3,208.5z"/>
		<polygon fill="#FFFFFF" points="260.5,207.5 260.9,207.2 260.8,207.9 260.3,208.1 260.6,207.9 		"/>
		<polygon fill="#FFFFFF" points="256.3,203.5 255.5,205.1 255.5,205.5 256.4,204.9 256.8,204.1 		"/>
		<polygon fill="#FFFFFF" points="255.7,205.2 255.1,204.9 254.4,204.6 254.4,204.8 255.5,205.5 		"/>
		<polygon fill="#3F3C42" points="253.9,204.1 254.4,203.9 254.9,204.3 254.9,204.7 254.8,205.1 254.1,205.3 253.7,205 253.7,204.4 
					"/>
		<polygon fill="#524E54" points="253.9,204.5 254.2,204.2 254.5,204.3 254.6,204.5 254.5,204.9 254.2,204.9 254,204.8 		"/>
	</g>
</g>
</svg>
