<?xml version="1.0" encoding="UTF-8" standalone="no"?>
<svg width="682px" height="357px" viewBox="0 0 682 357" version="1.1" xmlns="http://www.w3.org/2000/svg" xmlns:xlink="http://www.w3.org/1999/xlink">
    <!-- Generator: Sketch 39.1 (31720) - http://www.bohemiancoding.com/sketch -->
    <title>Page 1</title>
    <desc>Created with Sketch.</desc>
    <defs>
        <polygon id="path-1" points="-3.66546257e-14 352.8376 -3.66546257e-14 360 684.096579 360 684.096579 0.159 -3.66546257e-14 0.159 -3.66546257e-14 352.8376 -0.000173010193 0.158926824 682.300486 0.158926824 682.300486 352.8376 -6.6106788e-14 352.8376"></polygon>
        <polygon id="path-3" points="669.740292 352.178294 669.740292 0.0183274104 0.145010551 0.0183274104 0.145010551 352.178294 669.740292 352.178294"></polygon>
    </defs>
    <g id="Page-1" stroke="none" stroke-width="1" fill="none" fill-rule="evenodd">
        <g id="desktop_03_2" transform="translate(-381.000000, -148.000000)">
            <g id="Page-1" transform="translate(378.000000, 144.000000)">
                <g id="Group-7" transform="translate(0.000000, 0.841000)">
                    <g id="Group-3">
                        <mask id="mask-2" fill="white">
                            <use xlink:href="#path-1"></use>
                        </mask>
                        <g id="Clip-2"></g>
                        <path d="M414.448278,7.9306 C332.376459,36.9136 303.394191,36.9136 243.540778,33.9136 C183.686339,30.9136 67.8105906,91.9136 53.4543031,141.9136 C39.0980157,191.9136 69.8614888,257.8476 19.6144828,288.8806 C-30.6325232,319.9136 19.6144828,352.8376 125.23574,352.8376 L364.956002,352.8376 C364.956002,352.8376 593.86598,348.3086 604.120471,345.6116 C614.374962,342.9136 723.072567,298.9136 665.647417,211.9136 C608.222267,124.9136 588.738734,78.9136 582.58604,58.9136 C576.433345,38.9136 496.520097,-21.0524 414.448278,7.9306" id="Fill-1" fill-opacity="0.7" fill="#261E32" mask="url(#mask-2)"></path>
                    </g>
                    <g id="Group-6" transform="translate(14.356287, 4.000000)">
                        <mask id="mask-4" fill="white">
                            <use xlink:href="#path-3"></use>
                        </mask>
                        <g id="Clip-5"></g>
                        <path d="M660.862159,237.9137 C625.996889,299.9137 636.36418,311.2577 618.533671,327.9187 C600.702136,344.5807 419.540145,346.3677 397.663214,348.8377 C375.787308,351.3067 223.336867,348.8377 223.336867,348.8377 C191.890445,348.8377 27.8093593,358.6627 15.5131991,344.6137 C3.21601347,330.5647 -11.8324521,269.2467 15.5131991,243.9137 C42.8578249,218.5807 60.6329596,161.9137 64.734756,135.2467 C68.8365524,108.5807 85.9266871,78.4657 108.486567,60.5227 C131.046448,42.5807 207.613656,42.5807 232.224434,39.2467 C256.835213,35.9137 263.671882,31.9477 291.700482,19.9307 C319.729082,7.9137 404.680362,-14.7533 467.825467,13.9137 C530.971597,42.5807 545.327885,31.7987 582.244052,60.5227 C619.16022,89.2467 695.727428,175.9137 660.862159,237.9137" id="Fill-4" fill-opacity="0.7" fill="#261E32" mask="url(#mask-4)"></path>
                    </g>
                </g>
                <path d="M418.601347,352.8015 C443.467462,355.4215 616.42586,357.4885 633.51702,349.4555 C650.60818,341.4215 692.993068,312.7545 663.596519,230.7545 C634.200995,148.7545 634.883944,152.0875 624.629453,113.4215 C614.374962,74.7545 591.815082,28.7885 502.259535,24.7715 C412.703989,20.7545 358.012686,22.0875 306.057282,20.7545 C254.100853,19.4215 189.77443,27.5755 138.566579,70.0875 C87.3587268,112.5995 29.1860247,200.0875 28.5020501,230.0875 C27.8180756,260.0875 -11.1489903,339.1005 10.0439663,349.5945 C31.2369229,360.0875 189.839034,356.6015 228.8061,353.6785 C267.773165,350.7545 418.601347,352.8015 418.601347,352.8015" id="Fill-8" fill-opacity="0.8" fill="#1E1A27"></path>
                <polygon id="Fill-10" fill="#D2B4B0" points="328.158274 273.0436 343.028311 265.2356 347.976103 273.0436 347.31879 298.1426 333.877204 298.1426 328.158274 288.1026"></polygon>
                <polygon id="Fill-11" fill="#D2B4B0" points="325.298604 316.5479 326.092302 308.6519 328.158582 288.1029 343.028619 288.1029 350.46415 312.6439 337.880865 323.7989 328.158582 316.5479"></polygon>
                <polygon id="Fill-12" fill="#D2B4B0" points="302.420937 319.3367 326.092404 308.6517 349.254223 308.6517 388.78426 308.6517 371.625421 352.8017 316.719799 352.8017 296.702007 323.7987"></polygon>
                <polygon id="Fill-13" fill="#D2B4B0" points="322.439139 288.103 328.158069 288.103 328.158069 281.689 322.439139 281.689"></polygon>
                <polygon id="Fill-14" fill="#D2B4B0" points="344.802133 288.103 350.521063 288.103 350.521063 281.689 344.802133 281.689"></polygon>
                <polygon id="Fill-15" fill="#D2B4B0" points="374.313943 308.6515 380.014415 305.9505 388.784055 304.1105 399.65074 308.6515 434.253494 294.4885 442.39556 301.5705 414.216219 330.7265 388.784055 332.7595 371.244774 332.7595"></polygon>
                <polygon id="Fill-16" fill="#D2B4B0" points="430.879049 300.6893 446.22592 281.6883 468.855531 268.6193 472.535868 271.9283 440.087582 308.6513"></polygon>
                <polygon id="Fill-17" fill="#D2B4B0" points="312.317034 314.8697 295.385844 318.4347 283.547034 325.2767 278.723321 332.5457 252.852266 349.5947 290.124264 348.8137 328.158171 332.8617"></polygon>
                <polygon id="Fill-18" fill="#392A50" points="326.092404 308.6515 342.742621 319.4885 349.254223 308.6515 373.783991 307.6955 387.269672 303.3875 399.650945 307.2415 399.650945 330.7265 377.070555 338.7925 372.926716 349.4545 308.101925 349.5945 278.723834 332.5455 283.571132 323.7985 295.4284 317.4455 311.068549 315.1325"></polygon>
                <polygon id="Fill-19" fill="#D2B4B0" points="252.852573 347.726 262.498973 335.325 308.936436 341.526 318.206496 337.036 332.219257 346.016 325.298501 347.726 310.29413 349.594 252.852573 349.455"></polygon>
                <polygon id="Fill-20" fill="#989898" points="418.601347 356.148 241.811871 356.148 241.811871 349.455 415.579348 349.455 418.601347 349.455"></polygon>
                <polygon id="Fill-21" fill="#989898" points="482.182165 259.6391 479.201184 273.9191 406.472232 349.4551 399.650945 349.4551"></polygon>
                <polygon id="Fill-22" fill="#989898" points="422.099461 354.1477 235.130352 354.1477 235.130352 360.8407 425.35116 360.8407 425.35116 354.1477"></polygon>
                <polygon id="Fill-23" fill="#989898" points="478.329552 278.0934 482.182165 285.7544 475.612112 286.2544 467.906888 283.3884 465.343265 286.2544 473.034133 291.2544 485.339522 289.6744 477.13593 268.6184"></polygon>
                <polygon id="Fill-24" fill="#F4F3F6" points="578.142666 228.088 583.611386 212.088 583.611386 225.421 597.967674 228.088 582.928437 228.088 578.142666 242.088 578.142666 233.421 567.204201 227.088"></polygon>
                <polygon id="Stroke-25" stroke="#221F20" points="578.142666 228.088 583.611386 212.088 583.611386 225.421 597.967674 228.088 582.928437 228.088 578.142666 242.088 578.142666 233.421 567.204201 227.088"></polygon>
                <polygon id="Fill-26" fill="#F4F3F6" points="174.799284 236.7547 174.799284 224.7547 182.318903 236.7547 194.624292 236.7547 180.951979 242.0877 177.534157 259.6387 174.799284 242.1967 161.809921 233.4217"></polygon>
                <polygon id="Stroke-27" stroke="#221F20" points="174.799284 236.7547 174.799284 224.7547 182.318903 236.7547 194.624292 236.7547 180.951979 242.0877 177.534157 259.6387 174.799284 242.1967 161.809921 233.4217"></polygon>
                <polygon id="Fill-28" fill="#F4F3F6" points="141.301246 294.489 142.902998 291.059 144.036119 288.635 150.188814 294.489 145.744517 298.142"></polygon>
                <polygon id="Stroke-29" stroke="#221F20" points="141.301246 294.489 142.902998 291.059 144.036119 288.635 150.188814 294.489 145.744517 298.142"></polygon>
                <polygon id="Fill-30" fill="#F4F3F6" points="271.875167 133.8903 278.723116 133.8903 275.299141 139.4213"></polygon>
                <polygon id="Stroke-31" stroke="#221F20" points="271.875167 133.8903 278.723116 133.8903 275.299141 139.4213"></polygon>
                <polygon id="Fill-32" fill="#938F99" points="476.964987 92.7547 544.644628 106.0877 519.349875 200.0877 457.13998 182.7547"></polygon>
                <polygon id="Stroke-33" stroke="#221F20" points="476.964987 92.7547 544.644628 106.0877 519.349875 200.0877 457.13998 182.7547"></polygon>
                <polygon id="Fill-34" fill="#B9B7BC" points="543.619179 106.088 560.026365 106.088 531.997764 196.088 518.324426 200.088"></polygon>
            </g>
        </g>
    </g>
</svg>