<svg xmlns="http://www.w3.org/2000/svg" width="372" height="79" viewBox="0 0 372 79"><title>  NameLogo</title><desc>  Created with Sketch.</desc><g id="assets" fill="none"><g id="NameLogo" fill="#FFF"><g id="Icon"><path d="M62.1 56.1C61.4 55.3 60.9 54.6 60.3 54 55.8 49 51.4 44.1 46.9 39.2 46.7 38.9 46.7 38.8 46.9 38.5 48.2 36.7 49.5 34.9 50.9 33.1 52.5 30.8 54.2 28.5 55.9 26.1 57.1 24.5 56.7 22.3 55.1 21.1 53.5 19.9 51.3 20.2 50.1 21.7 49.3 22.6 48.7 23.6 48 24.5 45.2 28.4 42.3 32.3 39.5 36.2 38.7 37.2 37.9 38.2 37.1 39.3 37.4 39.6 37.7 39.9 37.9 40.2 42.6 45.4 47.3 50.6 52.1 55.8 52.2 56 52.4 56.1 52.6 56.1 55.7 56.1 58.7 56.1 61.7 56.1L62.1 56.1M27.6 37.1L27.6 36.6C27.6 32.7 27.6 28.8 27.6 25 27.6 24.8 27.6 24.5 27.6 24.3 27.3 22.3 25.5 21 23.5 21.2 21.7 21.3 20.2 22.9 20.2 24.9 20.2 35.1 20.2 45.4 20.3 55.7L20.3 56.1 27.6 56.1 27.6 42C27.8 42.2 28 42.4 28.1 42.6 32.1 47 36.1 51.4 40 55.8 40.2 56 40.4 56.1 40.6 56.1 43.6 56.1 46.7 56.1 49.7 56.1L50.1 56.1C45.1 50.4 40.1 44.9 35.1 39.3 35.1 39.2 35.2 39.1 35.3 39 36.8 36.9 38.4 34.8 39.9 32.7 41.3 30.7 42.8 28.8 44.2 26.8 45.2 25.4 45.2 23.5 44.1 22.2 42.5 20.3 39.7 20.5 38.2 22.5 35.3 26.4 32.5 30.3 29.7 34.2 29 35.1 28.3 36.1 27.6 37.1M0 56.5L0 22.1C0 21.9 0.1 21.7 0.1 21.5 0.2 19.6 0.2 17.7 0.4 15.7 0.5 14.1 0.8 12.6 1.4 11.1 3.8 5.3 8 1.7 14.2 0.6 16.5 0.2 18.9 0.1 21.2 0.1 21.4 0.1 21.6 0 21.9 0L56.4 0C56.5 0 56.6 0.1 56.7 0.1 58.4 0.1 60 0.2 61.7 0.3 63.5 0.5 65.3 0.8 67 1.4 72.9 3.8 76.4 8.2 77.5 14.6 77.9 17 78 19.5 78 22 78 32.3 78 42.6 78 52.9 78 55.9 78 58.8 77.7 61.7 77.5 63.5 77.3 65.3 76.6 67 74.2 72.7 70 76.2 63.9 77.4 61.2 77.9 58.6 78 55.9 78 45.4 78 35 78 24.5 78 21.8 78 19 77.8 16.3 77.7 14.5 77.6 12.7 77.2 11 76.6 4.9 74.1 1.4 69.5 0.5 62.9 0.2 61 0.2 59 0.1 57.1 0.1 56.8 0 56.7 0 56.5" id="AppIcon"/></g><g id="Name"><path d="M100 48.8C100.4 58.2 108.1 63.9 119.7 63.9 132 63.9 139.7 57.9 139.7 48.3 139.7 40.7 135.4 36.4 125.1 34.1L119.2 32.7C113 31.3 110.4 29.3 110.4 25.9 110.4 21.7 114.3 18.9 120 18.9 125.8 18.9 129.8 21.7 130.2 26.5L138.9 26.5C138.7 17.6 131.3 11.5 120.1 11.5 109.1 11.5 101.2 17.6 101.2 26.6 101.2 33.8 105.7 38.3 115 40.5L121.6 42C128 43.5 130.6 45.6 130.6 49.3 130.6 53.5 126.3 56.5 120.2 56.5 114 56.5 109.4 53.5 108.8 48.8L100 48.8ZM146.1 63.1L154.8 63.1 154.8 24.7 146.1 24.7 146.1 63.1ZM150.4 19.8C153.2 19.8 155.3 17.7 155.3 15 155.3 12.2 153.2 10.1 150.4 10.1 147.7 10.1 145.5 12.2 145.5 15 145.5 17.7 147.7 19.8 150.4 19.8L150.4 19.8ZM176.9 63.5C182.5 63.5 186.9 60.8 189 56.5L189.2 56.5 189.2 63.1 197.8 63.1 197.8 10 189 10 189 31.1 188.8 31.1C186.7 26.9 182.4 24.2 176.9 24.2 167.3 24.2 160.9 31.9 160.9 43.9 160.9 55.8 167.3 63.5 176.9 63.5L176.9 63.5ZM179.5 31.5C185.2 31.5 189.1 36.5 189.1 43.9 189.1 51.3 185.3 56.2 179.5 56.2 173.7 56.2 169.9 51.4 169.9 43.9 169.9 36.4 173.7 31.5 179.5 31.5L179.5 31.5ZM221.9 31C227.1 31 230.7 34.6 230.9 40.2L212.6 40.2C213 34.7 216.8 31 221.9 31L221.9 31ZM230.9 51.7C229.9 54.8 226.6 56.8 222.4 56.8 216.5 56.8 212.6 52.7 212.6 46.5L212.6 46 239.5 46 239.5 43.1C239.5 31.5 232.6 24.1 221.9 24.1 210.9 24.1 203.8 31.9 203.8 44 203.8 56.1 210.8 63.6 222.2 63.6 231.2 63.6 238 58.8 239.1 51.7L230.9 51.7ZM255.1 63.1L255.1 46.8 260.1 40.9 276.6 63.1 287.7 63.1 266.6 34.9 286.2 12.4 275.7 12.4 255.5 36.1 255.1 36.1 255.1 12.4 246.1 12.4 246.1 63.1 255.1 63.1ZM323 38.3C322.4 30.4 316.1 24.1 306.1 24.1 295 24.1 287.8 31.8 287.8 43.9 287.8 56.1 295 63.6 306.2 63.6 315.8 63.6 322.3 58.1 323.1 49.7L314.8 49.7C314 54.1 310.9 56.5 306.2 56.5 300.5 56.5 296.7 51.8 296.7 43.9 296.7 36.1 300.4 31.3 306.2 31.3 311.1 31.3 314.1 34.2 314.8 38.3L323 38.3ZM338.3 63.1L338.3 46.8 343.3 40.9 359.8 63.1 370.8 63.1 349.8 34.9 369.3 12.4 358.9 12.4 338.6 36.1 338.3 36.1 338.3 12.4 329.2 12.4 329.2 63.1 338.3 63.1Z" id="SideKcK"/></g></g></g></svg>