<?xml version="1.0" encoding="UTF-8" standalone="no"?>
<svg width="35px" height="35px" viewBox="0 0 35 35" version="1.1" xmlns="http://www.w3.org/2000/svg" xmlns:xlink="http://www.w3.org/1999/xlink">
    <!-- Generator: Sketch 39.1 (31720) - http://www.bohemiancoding.com/sketch -->
    <title>tweet_icon</title>
    <desc>Created with Sketch.</desc>
    <defs></defs>
    <g id="assets" stroke="none" stroke-width="1" fill="none" fill-rule="evenodd">
        <g id="tweet_icon" fill="#249EE1">
            <path d="M16.3904358,35.0239755 C12.8234219,34.8016845 9.37342541,33.4638965 6.58518263,31.2248194 C3.92606251,29.0908253 1.9327312,26.2252916 0.879574374,23.0243006 C-0.40358222,19.1321864 -0.278494628,14.9005731 1.22659157,11.0610005 C1.48483692,10.4022107 2.10220471,9.15333913 2.47746749,8.53092419 C3.99465894,6.02105617 6.01220075,4.00022846 8.51798768,2.48056602 C9.13939056,2.10469206 10.3902665,1.48631878 11.04395,1.22765284 C15.2162265,-0.409217612 19.7839412,-0.409217612 23.9562176,1.22765284 C24.6099012,1.48631878 25.8607771,2.10469206 26.48218,2.48056602 C28.9879669,4.00022846 31.0055087,6.02105617 32.5227002,8.53092419 C32.897963,9.15333913 33.5153308,10.4062523 33.7735761,11.0610005 C35.2948026,14.949073 35.4037499,19.1806862 34.0842776,23.1455502 C33.6000675,24.5884212 32.7890157,26.2050834 31.885157,27.5145797 C29.7344574,30.6185711 26.5588466,32.9991061 22.9877976,34.1752279 C20.8774488,34.8744343 18.617802,35.1654335 16.3904358,35.0239755 L16.3904358,35.0239755 Z M23.2258675,25.4695021 C24.0934105,25.3280441 24.8358659,24.9602535 25.5258652,24.3337969 C25.7800754,24.1034226 25.7518299,24.1074642 26.4297239,24.3014637 C26.9825304,24.4590882 27.5958631,24.6935042 28.1890204,24.9723785 C28.4190201,25.0774615 28.6167392,25.1582946 28.6288445,25.1461697 C28.6813006,25.0936281 28.314108,24.3135886 28.0598977,23.933673 C27.8379681,23.6062989 27.349723,23.1213003 26.9865655,22.8707176 C26.6435833,22.63226 26.6193728,22.6363016 27.4263896,22.8100928 C27.8097225,22.8909259 28.9314758,23.2425499 29.2179667,23.3678413 C29.3067385,23.4082578 29.1695457,23.1900084 28.8063882,22.7211764 C28.5320025,22.3655107 27.6039332,21.4480549 27.2770915,21.2055556 L27.0309514,21.0236811 L27.0067409,20.3163914 C26.9260392,18.2066473 26.6032325,16.7112348 25.8446368,14.9814063 C25.1949883,13.4859937 24.4404277,12.3826218 23.2742885,11.2186251 C21.0267469,8.97550629 18.3676268,7.71046814 15.3009633,7.4235106 C14.7320165,7.37096908 13.2309654,7.37096908 12.6942992,7.4235106 C11.1528973,7.57709351 9.75272327,7.95700912 8.42921584,8.57942406 C7.98132156,8.78959014 7.36395377,9.12504754 7.09360316,9.30692203 L6.95641032,9.39988011 L7.86026905,9.39583845 C8.78833829,9.3917968 9.26851324,9.43221335 9.95447746,9.56962964 C10.7655293,9.73533751 11.620967,10.0425033 12.3351768,10.4224189 C12.7104396,10.62046 13.6062281,11.1943751 13.646579,11.2630833 C13.6586842,11.2832915 13.5618422,11.3075415 13.4367546,11.3237081 C11.9316684,11.489416 10.753424,12.204789 9.95447746,13.4334522 C9.77289869,13.7082848 9.54693401,14.1852001 9.49044284,14.4236578 C9.46219725,14.5287408 9.46623234,14.5287408 9.61956551,14.4923659 C9.97465287,14.4115328 11.3667567,14.480241 11.3667567,14.5772407 C11.3667567,14.5934073 11.3062305,14.6216989 11.2376341,14.6338239 C10.7332486,14.7348653 9.94237221,15.1551974 9.4743025,15.5714879 C8.60675952,16.3434441 8.11447932,17.1921918 7.91676022,18.2511055 C7.86430414,18.5542296 7.83202347,19.1443113 7.8723743,19.1443113 C7.88044447,19.1443113 7.99342681,19.0917698 8.12254949,19.0271033 C8.44939126,18.8654371 8.9336013,18.7199375 9.40570608,18.6391044 C9.6236006,18.6027295 9.80517936,18.5784796 9.81324953,18.5865629 C9.8213197,18.5946462 9.68412685,18.7158959 9.50658317,18.8533122 C8.4897421,19.6656849 7.92079531,20.8054317 7.86833922,22.139178 C7.84009363,22.8100928 7.89254972,23.2223417 8.07816357,23.7800901 C8.20728624,24.168089 8.43728601,24.6813793 8.48167193,24.6813793 C8.49377718,24.6813793 8.5623736,24.6126711 8.63500511,24.531838 C9.91412662,23.0445088 11.233599,21.9815535 12.730615,21.2257639 C14.1953504,20.4901826 15.8376294,20.0536838 17.4718383,19.9647674 C17.939908,19.9405175 17.9560483,19.9405175 17.9278027,20.0173089 C17.8148204,20.3042664 17.7825397,21.201514 17.8632414,21.7188458 C18.0044693,22.6160934 18.3999075,23.3880495 19.0697314,24.0872559 C19.7879763,24.8349622 20.6313087,25.2997526 21.5392026,25.4492938 C21.704641,25.4735437 21.8660443,25.5018353 21.898325,25.5099186 C22.0879739,25.5462935 22.8990257,25.5220436 23.2258675,25.4695021 L23.2258675,25.4695021 Z" id="tw_icon" transform="translate(17.500000, 17.529393) scale(1, -1) translate(-17.500000, -17.529393) "></path>
        </g>
    </g>
</svg>